<svg width="600" height="401" viewBox="0 0 600 401" fill="none" xmlns="http://www.w3.org/2000/svg">
<path fill-rule="evenodd" clip-rule="evenodd" d="M501.389 393.593H40.7354C40.3455 390.858 40.2952 388.043 40.6176 385.195L45.1747 346.863C45.7066 341.88 43.9795 336.931 40.4189 333.236L13.1887 305.082C1.29016 292.826 0.235168 274.329 10.6635 260.806L34.5807 229.689C37.706 225.618 38.8601 220.503 37.7564 215.612L28.8703 178.042C25.1226 161.791 34.0364 145.222 50.2096 138.377L87.3436 122.628C92.1944 120.569 95.8962 116.666 97.5208 111.898L109.934 75.3414C115.371 59.4798 131.827 49.2866 149.404 50.8934L190.094 54.9316C195.376 55.4258 200.649 53.7896 204.605 50.4283L234.684 24.4822C247.813 13.2716 267.415 12.16 281.735 21.814L314.637 44.1886C318.946 47.0885 324.374 48.1188 329.566 47.0224L369.535 38.4102C386.816 34.8267 404.325 43.0938 411.53 58.2385L428.02 93.1562C430.197 97.6947 434.311 101.147 439.351 102.667L478.104 114.112C494.918 119.126 505.638 134.551 503.815 151.109L499.258 189.441C498.69 194.418 500.395 199.374 503.947 203.072L531.315 231.281C543.138 243.567 544.19 262.013 533.84 275.557L509.573 306.441C506.472 310.52 505.342 315.633 506.464 320.514L515.35 358.084C518.433 371.645 512.742 385.411 501.389 393.593Z" fill="#D7FFB8" style="fill:#D7FFB8;fill:color(display-p3 0.8422 1.0000 0.7208);fill-opacity:1;"/>
<path d="M276.825 175.315C266.143 185.075 254.31 196.881 244.55 186.198L230.44 164.802C221.407 151.117 222.334 137.125 233.016 127.366L245.006 116.222C255.688 106.462 270.63 108.887 280.39 119.569L288.856 128.835C298.615 139.517 297.868 156.089 287.186 165.849L276.825 175.315Z" fill="#3D3D3D" style="fill:#3D3D3D;fill:color(display-p3 0.2392 0.2392 0.2392);fill-opacity:1;"/>
<path d="M336.858 192.824C360.459 205.816 373.667 206.037 388.971 191.214C399.364 181.147 397.408 164.601 390.528 151.852C383.649 139.104 373.176 122.304 363.109 111.911C353.042 101.518 336.456 101.253 326.062 111.32L317.047 120.051C306.654 130.118 306.389 146.704 316.456 157.098L336.858 192.824Z" fill="#3D3D3D" style="fill:#3D3D3D;fill:color(display-p3 0.2392 0.2392 0.2392);fill-opacity:1;"/>
<path d="M265.373 113.255C265.883 95.9778 274.624 90.2317 290.726 88.1651C306.828 86.0984 344.621 88.6554 337.3 115.377L335.917 162.251C335.486 176.85 323.303 188.334 308.705 187.904L289.642 187.341C275.044 186.91 263.559 174.727 263.99 160.129L265.373 113.255Z" fill="#3D3D3D" style="fill:#3D3D3D;fill:color(display-p3 0.2392 0.2392 0.2392);fill-opacity:1;"/>
<path fill-rule="evenodd" clip-rule="evenodd" d="M351.225 104.863C355.607 106.059 359.734 108.41 363.123 111.909C373.19 122.302 383.663 139.101 390.543 151.85C397.422 164.599 399.378 181.145 388.985 191.212C381.596 198.369 374.695 202.018 366.877 202.417L343.684 158.013C350.651 162.23 359.427 160.43 367.519 154.529C376.32 148.112 375.485 138.195 367.519 122.652C362.154 112.183 357.722 107.491 351.225 104.863Z" fill="#2C3038" style="fill:#2C3038;fill:color(display-p3 0.1725 0.1882 0.2196);fill-opacity:1;"/>
<path d="M289.293 159.736L339.952 158.724L355.756 186.896L363.095 242.979C364.598 254.458 356.119 264.832 344.57 265.645L287.707 269.647C281.631 270.075 275.597 268.361 270.654 264.804L246.061 247.108C238.922 241.971 235.461 233.123 237.221 224.505L247.932 172.044L289.293 159.736Z" fill="#A46648" style="fill:#A46648;fill:color(display-p3 0.6431 0.4000 0.2824);fill-opacity:1;"/>
<path fill-rule="evenodd" clip-rule="evenodd" d="M344.436 265.656L307.599 268.249C298.735 262.938 317.821 242.747 330.087 241.075C341.894 239.466 341.894 235.335 341.894 227.341C341.894 215.636 340.772 203.445 339.702 191.824C339.021 184.418 338.36 177.242 338.025 170.571C337.858 167.243 339.681 164.221 342.403 163.077L355.766 186.898L363.105 242.98C364.487 253.54 357.423 263.164 347.293 265.271L344.436 265.656Z" fill="#8D504C" style="fill:#8D504C;fill:color(display-p3 0.5529 0.3137 0.2980);fill-opacity:1;"/>
<path fill-rule="evenodd" clip-rule="evenodd" d="M281.006 269.255C277.287 268.553 273.738 267.043 270.622 264.801L251.828 251.277C248.609 247.353 252.743 245.499 258.213 245.499C283.419 245.499 321.559 242.191 332.673 241.175C334.712 240.989 336.747 241.499 338.455 242.629L351.832 251.48C356.226 254.386 356.06 260.275 352.679 263.285C351.001 264.192 349.173 264.869 347.232 265.271L344.416 265.65L293.2 269.255H281.006Z" fill="#8D504C" style="fill:#8D504C;fill:color(display-p3 0.5529 0.3137 0.2980);fill-opacity:1;"/>
<path d="M335.579 154.625C315.539 156.246 274.015 160.259 247.797 164.076C244.726 164.523 242.555 167.281 242.79 170.375L243.9 184.936C243.981 186.009 245.139 186.643 246.088 186.136L289.342 162.983L331.503 176.852C335.135 178.047 338.168 180.592 339.975 183.961L357.563 216.755L368.541 204.612C370.413 202.542 370.922 199.629 369.62 197.16C365.449 189.247 355.928 173.223 347.357 160.306C344.764 156.398 340.253 154.247 335.579 154.625Z" fill="#FDB02A" style="fill:#FDB02A;fill:color(display-p3 0.9922 0.6902 0.1647);fill-opacity:1;"/>
<path fill-rule="evenodd" clip-rule="evenodd" d="M359.265 214.875L368.542 204.614C370.414 202.544 370.922 199.631 369.621 197.162C365.45 189.249 355.929 173.225 347.358 160.308C346.765 159.415 346.072 158.613 345.3 157.913C345.061 159.054 344.821 160.208 344.582 161.36C343.441 166.857 342.31 172.303 341.242 175.989C341.16 176.27 341.08 176.602 340.993 176.96C340.568 178.715 339.987 181.116 338.318 181.499C338.947 182.258 339.503 183.082 339.975 183.963L355.43 212.779L359.265 214.875Z" fill="#F49000" style="fill:#F49000;fill:color(display-p3 0.9569 0.5647 0.0000);fill-opacity:1;"/>
<path d="M293.219 158.569C294.484 145.357 288.275 141.359 273.66 142.999C273.66 155.974 279.633 160.167 293.219 158.569Z" fill="#FDB02A" style="fill:#FDB02A;fill:color(display-p3 0.9922 0.6902 0.1647);fill-opacity:1;"/>
<path d="M289.723 159.384C289.723 145.813 300.197 139.971 312.873 141.463C312.873 155.518 302.996 158.191 289.723 159.384Z" fill="#FDB02A" style="fill:#FDB02A;fill:color(display-p3 0.9922 0.6902 0.1647);fill-opacity:1;"/>
<ellipse cx="356.311" cy="210.075" rx="12.8851" ry="12.8851" fill="#8D504C" style="fill:#8D504C;fill:color(display-p3 0.5529 0.3137 0.2980);fill-opacity:1;"/>
<path fill-rule="evenodd" clip-rule="evenodd" d="M308.177 208.927C304.676 207.071 297.348 208.315 294.422 212.639C292.732 215.137 289.709 215.634 286.743 215.622C284.574 215.613 282.436 215.333 280.873 215.364C276.636 215.448 274.656 217.326 274.192 221.368C273.728 225.41 276.918 229.962 280.873 231.2C286.653 233.009 292.773 232.799 298.109 230.884C303.07 229.103 307.098 225.847 309.799 221.368C312.23 217.776 311.678 210.783 308.177 208.927Z" fill="white" style="fill:white;fill-opacity:1;"/>
<path d="M302.006 175.513C308.982 175.195 315.652 180.216 315.058 187.117L314.522 194.925C314.245 198.137 313.831 200.282 311.627 202.588C306.302 202.578 299.716 202.863 295.195 206.589C290.974 204.833 288.688 201.127 289.126 196.055L289.796 188.271C290.391 181.371 295.03 175.832 302.006 175.513Z" fill="white" style="fill:white;fill-opacity:1;"/>
<path d="M282.655 188.273C283.234 181.554 277.844 176.48 271.428 176.774L270.8 176.802C264.384 177.096 259.371 182.645 258.792 189.363L258.064 197.804C257.485 204.523 262.217 209.731 268.634 209.438L269.261 209.409C275.678 209.116 281.348 203.432 281.928 196.713L282.655 188.273Z" fill="white" style="fill:white;fill-opacity:1;"/>
<path fill-rule="evenodd" clip-rule="evenodd" d="M265.675 186.495C268.191 186.38 270.404 184.269 270.619 181.78C270.709 180.736 270.432 179.791 269.895 179.054C270.243 178.974 270.599 178.924 270.961 178.908C274.048 178.766 276.338 181.128 276.075 184.182L275.475 191.146C275.211 194.2 272.495 196.791 269.407 196.932C266.32 197.073 264.03 194.711 264.293 191.657L264.743 186.441C265.041 186.491 265.353 186.509 265.675 186.495Z" fill="#3D3D3D" style="fill:#3D3D3D;fill:color(display-p3 0.2392 0.2392 0.2392);fill-opacity:1;"/>
<path fill-rule="evenodd" clip-rule="evenodd" d="M292.141 185.281C294.654 185.163 296.864 183.053 297.079 180.567C297.161 179.616 296.939 178.748 296.493 178.044C297.089 177.817 297.72 177.68 298.367 177.651C301.455 177.51 303.744 179.871 303.481 182.925L302.881 189.889C302.618 192.943 299.901 195.534 296.814 195.675C293.726 195.816 291.436 193.454 291.7 190.4L292.141 185.281Z" fill="#3D3D3D" style="fill:#3D3D3D;fill:color(display-p3 0.2392 0.2392 0.2392);fill-opacity:1;"/>
<path d="M288.671 207.38C288.467 209.79 286.066 211.553 283.309 211.32C280.553 211.086 278.484 208.943 278.688 206.533C278.893 204.123 284.15 198.94 284.358 198.957C284.566 198.975 288.875 204.97 288.671 207.38Z" fill="#86401F" style="fill:#86401F;fill:color(display-p3 0.5255 0.2510 0.1216);fill-opacity:1;"/>
<path d="M289.08 206.807C289.087 204.092 286.873 201.885 284.136 201.879L279.962 201.869C277.225 201.863 275.076 204.059 275.07 206.774C275.063 209.489 277.202 211.695 279.939 211.701C282.676 211.708 284.112 211.711 284.112 211.711C286.85 211.718 289.074 209.522 289.08 206.807Z" fill="#86401F" style="fill:#86401F;fill:color(display-p3 0.5255 0.2510 0.1216);fill-opacity:1;"/>
<path d="M200.365 304.628L281.613 271.328L253.158 334.294L203.798 328.927C190.745 327.508 188.216 309.607 200.365 304.628Z" fill="#A46648" style="fill:#A46648;fill:color(display-p3 0.6431 0.4000 0.2824);fill-opacity:1;"/>
<path d="M281.141 257.769L275.131 280.26L331.164 278.321L324.184 256.799C309.294 244.7 288.315 251.176 281.141 257.769Z" fill="#FDB02A" style="fill:#FDB02A;fill:color(display-p3 0.9922 0.6902 0.1647);fill-opacity:1;"/>
<path fill-rule="evenodd" clip-rule="evenodd" d="M312.812 251.066L315.223 272.988C319.769 271.335 332.386 272.95 342.845 275.398C338.642 273.123 333.848 271.24 328.412 269.857L324.173 256.787C320.64 253.917 316.765 252.092 312.812 251.066Z" fill="#FF9C0D" style="fill:#FF9C0D;fill:color(display-p3 1.0000 0.6112 0.0514);fill-opacity:1;"/>
<path d="M365.285 336.525C374.431 312.135 365.285 269.696 310.419 267.331C272.861 265.712 253.09 287.477 245.967 305.934C238.384 325.58 245.05 337.505 261.649 349.362C278.248 361.218 358.394 354.901 365.285 336.525Z" fill="#FDB02A" style="fill:#FDB02A;fill:color(display-p3 0.9922 0.6902 0.1647);fill-opacity:1;"/>
<path d="M252.391 332.504C252.391 324.044 260.97 315.601 269.212 313.692C280.455 311.086 293.455 308.342 305.536 307.622C317.415 306.914 332.839 308.427 344.378 309.944C353.946 311.202 360.837 319.472 360.837 329.122C360.837 339.975 352.173 348.843 341.323 349.097L271.612 350.724C261.086 350.97 252.391 343.033 252.391 332.504Z" fill="#FF9C0D" style="fill:#FF9C0D;fill:color(display-p3 1.0000 0.6112 0.0514);fill-opacity:1;"/>
<path d="M261.29 337.685C286.564 318.428 324.952 320.655 355.125 326.49L364.596 358.778L255.473 363.628L261.29 337.685Z" fill="#FF4B4B" style="fill:#FF4B4B;fill:color(display-p3 1.0000 0.2941 0.2941);fill-opacity:1;"/>
<path fill-rule="evenodd" clip-rule="evenodd" d="M277.452 328.725C271.671 330.98 266.231 333.923 261.292 337.686L255.685 362.693H274.264L277.452 328.725Z" fill="#1CB0F6" style="fill:#1CB0F6;fill:color(display-p3 0.1098 0.6902 0.9647);fill-opacity:1;"/>
<path d="M251.582 353.96C281.171 335.643 333.538 330.946 367.119 353.96C387.811 368.141 381.034 385.459 381.034 385.459C351.223 385.459 233.941 385.459 233.941 385.459C236.732 372.87 242.419 359.632 251.582 353.96Z" fill="#1CB0F6" style="fill:#1CB0F6;fill:color(display-p3 0.1098 0.6902 0.9647);fill-opacity:1;"/>
<path d="M358.949 378.974L331.577 288.156C330.764 285.455 330.852 282.562 331.827 279.915C335.066 271.122 344.834 273.22 354.027 278.389C363.221 283.557 406.8 322.348 419.835 337.592C432.87 352.837 429.034 378.974 406.162 378.974H358.949Z" fill="#A46648" style="fill:#A46648;fill:color(display-p3 0.6431 0.4000 0.2824);fill-opacity:1;"/>
<path fill-rule="evenodd" clip-rule="evenodd" d="M343.299 274.183C337.606 277.438 338.425 281.802 345.758 289.998C352.363 297.38 371.497 322.212 380.239 333.706L374.436 378.971H406.144C429.017 378.971 432.853 352.834 419.818 337.589C406.783 322.345 363.203 283.554 354.009 278.385C350.383 276.347 346.668 274.786 343.299 274.183Z" fill="#8D504C" style="fill:#8D504C;fill:color(display-p3 0.5529 0.3137 0.2980);fill-opacity:1;"/>
<ellipse cx="344.803" cy="355.398" rx="41.2091" ry="41.2091" fill="#A46648" style="fill:#A46648;fill:color(display-p3 0.6431 0.4000 0.2824);fill-opacity:1;"/>
<path d="M325.007 335.668C317.076 331.703 308.501 323.618 303.872 315.437" stroke="#A46648" style="stroke:#A46648;stroke:color(display-p3 0.6431 0.4000 0.2824);stroke-opacity:1;" stroke-width="33.5113" stroke-linecap="round"/>
<path d="M315.127 361.298C305.477 359.69 297.636 360.092 286.579 352.452" stroke="#A46648" style="stroke:#A46648;stroke:color(display-p3 0.6431 0.4000 0.2824);stroke-opacity:1;" stroke-width="33.5113" stroke-linecap="round"/>
<ellipse cx="344.803" cy="355.398" rx="41.2091" ry="41.2091" fill="#A46648" style="fill:#A46648;fill:color(display-p3 0.6431 0.4000 0.2824);fill-opacity:1;"/>
<path d="M325.007 335.668C317.076 331.703 308.501 323.618 303.872 315.437" stroke="#A46648" style="stroke:#A46648;stroke:color(display-p3 0.6431 0.4000 0.2824);stroke-opacity:1;" stroke-width="33.5113" stroke-linecap="round"/>
<path d="M315.127 361.298C305.477 359.69 297.636 360.092 286.579 352.452" stroke="#A46648" style="stroke:#A46648;stroke:color(display-p3 0.6431 0.4000 0.2824);stroke-opacity:1;" stroke-width="33.5113" stroke-linecap="round"/>
<path fill-rule="evenodd" clip-rule="evenodd" d="M324.391 314.537C325.861 315.884 326.453 316.456 327.94 317.607C320.601 322.931 315.653 328.76 313.982 340.247C313.775 341.672 312.695 343.241 311.271 343.034C310.47 342.918 309.27 343.134 308.88 342.492C308.577 341.993 308.733 340.12 308.823 339.497C311.036 324.284 319.567 316.946 324.391 314.537Z" fill="#8D504C" style="fill:#8D504C;fill:color(display-p3 0.5529 0.3137 0.2980);fill-opacity:1;"/>
<path d="M279.171 369.3C279.171 353.666 291.844 340.993 307.477 340.993H350.939C366.461 340.993 379.045 353.576 379.045 369.099V383.197C379.045 390.6 373.043 396.601 365.64 396.601H292.575C285.172 396.601 279.171 390.6 279.171 383.197V369.3Z" fill="#DBD5DC" style="fill:#DBD5DC;fill:color(display-p3 0.8588 0.8353 0.8627);fill-opacity:1;"/>
<path fill-rule="evenodd" clip-rule="evenodd" d="M307.453 340.993C291.832 341.007 279.173 353.675 279.173 369.3V383.197C279.173 390.6 285.174 396.601 292.577 396.601H322.746C330.141 396.591 336.132 390.594 336.132 383.197V369.099C336.132 353.576 323.549 340.993 308.027 340.993H307.453Z" fill="#E6EAE8" style="fill:#E6EAE8;fill:color(display-p3 0.9020 0.9176 0.9098);fill-opacity:1;"/>
<path d="M328.968 348.636C328.968 334.764 339.422 327.325 353.093 332.955" stroke="#A46648" style="stroke:#A46648;stroke:color(display-p3 0.6431 0.4000 0.2824);stroke-opacity:1;" stroke-width="32.0219" stroke-linecap="round"/>
<path d="M356.888 356.073C358.496 345.418 360.708 342.804 363.924 338.984" stroke="#A46648" style="stroke:#A46648;stroke:color(display-p3 0.6431 0.4000 0.2824);stroke-opacity:1;" stroke-width="32.0219" stroke-linecap="round"/>
<path fill-rule="evenodd" clip-rule="evenodd" d="M357.581 316.198L346.897 314.954C367.007 326.556 368.977 335.803 367.043 347.018C365.812 354.156 363.04 367.115 357.53 372.116C363.54 371.849 372.416 369.741 374.014 353.166C378.326 358.764 379.461 365.573 378.856 379.72C399.887 359.369 375.913 328.254 375.289 327.635C370.531 322.419 364.452 318.43 357.581 316.198Z" fill="#8D504C" style="fill:#8D504C;fill:color(display-p3 0.5529 0.3137 0.2980);fill-opacity:1;"/>
<path d="M229.366 295.318C239.319 291.155 249.933 296.022 253.074 306.189C256.215 316.355 250.692 327.972 240.74 332.135L238.548 333.051C228.596 337.214 217.981 332.347 214.84 322.181C211.7 312.014 217.222 300.398 227.175 296.235L229.366 295.318Z" fill="#A46648" style="fill:#A46648;fill:color(display-p3 0.6431 0.4000 0.2824);fill-opacity:1;"/>
<path d="M269.645 303.464C273.601 308.872 276.621 312.924 274.343 320.419C273.096 324.523 268.825 326.869 264.666 325.817C264.518 326.823 264.292 327.827 263.98 328.822C262.655 333.055 258.113 335.382 253.834 334.018C253.084 333.779 252.393 333.443 251.768 333.028C251.203 337.161 247.506 340.186 243.238 339.879C238.767 339.558 235.364 335.701 235.637 331.265C236.03 324.886 233.118 318.958 225.87 315.149C221.893 313.059 220.354 315.897 222.414 311.971C224.141 308.679 227.861 307.101 231.363 307.91C231.246 306.413 231.549 304.871 232.324 303.464C234.066 300.299 237.658 298.789 241.058 299.511C242.31 295.561 247.617 292.201 251.768 293.184C259.613 295.044 265.451 297.73 269.645 303.464Z" fill="#A46648" style="fill:#A46648;fill:color(display-p3 0.6431 0.4000 0.2824);fill-opacity:1;"/>
<path d="M252.357 292.778C239.1 289.659 229.721 297.544 226.688 301.876L215.316 303.501" stroke="#8D504C" style="stroke:#8D504C;stroke:color(display-p3 0.5529 0.3137 0.2980);stroke-opacity:1;" stroke-width="3.72346" stroke-linecap="round"/>
<path d="M254.53 334.492C253.833 334.486 253.128 334.38 252.433 334.164C251.75 333.952 251.121 333.648 250.555 333.269C250.53 333.436 250.5 333.601 250.465 333.764C251.38 328.339 249.229 322.976 245.36 318.626C244.605 317.777 244.685 316.453 245.539 315.669C246.394 314.886 247.698 314.939 248.453 315.788C252.936 320.828 255.742 327.541 254.53 334.492Z" fill="#8D504C" style="fill:#8D504C;fill:color(display-p3 0.5529 0.3137 0.2980);fill-opacity:1;"/>
<path d="M267.949 326.639C266.618 327.066 265.151 327.133 263.698 326.764C263.687 326.835 263.677 326.907 263.665 326.979C263.773 325.56 263.667 324.167 263.38 322.806C262.637 319.278 260.652 315.837 257.777 312.691C256.982 311.822 257.039 310.491 257.905 309.718C258.77 308.946 260.116 309.025 260.91 309.894C264.154 313.442 266.605 317.55 267.545 322.012C267.865 323.532 268.006 325.078 267.949 326.639Z" fill="#8D504C" style="fill:#8D504C;fill:color(display-p3 0.5529 0.3137 0.2980);fill-opacity:1;"/>
<path d="M341.823 360.001C341.823 353.025 345.041 346.646 347.775 344.642" stroke="#8D504C" style="stroke:#8D504C;stroke:color(display-p3 0.5529 0.3137 0.2980);stroke-opacity:1;" stroke-width="5.21286" stroke-linecap="round"/>
<path d="M339.743 314.568C365.076 312.928 387.674 330.606 387.674 365.598" stroke="#7B4642" style="stroke:#7B4642;stroke:color(display-p3 0.4824 0.2745 0.2588);stroke-opacity:1;" stroke-width="5.21286" stroke-linecap="round"/>
<path d="M381.489 336.442C387.368 336.442 394.247 336.481 406.275 341.181" stroke="#7B4642" style="stroke:#7B4642;stroke:color(display-p3 0.4824 0.2745 0.2588);stroke-opacity:1;" stroke-width="5.21286" stroke-linecap="round"/>
<path d="M95.427 351.07C95.6124 350.496 96.1265 350.09 96.7287 350.043L194.754 342.393C194.932 342.379 195.111 342.398 195.283 342.447L242.945 356.185C243.475 356.338 243.878 356.772 243.991 357.312L246.016 367.021C246.209 367.946 245.503 368.815 244.558 368.815H196.963L91.752 368.815C90.7416 368.815 90.0245 367.83 90.3345 366.868L95.427 351.07Z" fill="#B2BCD0" style="fill:#B2BCD0;fill:color(display-p3 0.6980 0.7373 0.8157);fill-opacity:1;"/>
<path d="M195.156 344.504C195.081 343.47 196.058 342.677 197.054 342.964L242.922 356.185C243.452 356.338 243.855 356.771 243.967 357.312L245.993 367.021C246.186 367.946 245.479 368.815 244.535 368.815H198.324C197.544 368.815 196.896 368.212 196.839 367.434L195.156 344.504Z" fill="#C7C9D6" style="fill:#C7C9D6;fill:color(display-p3 0.7804 0.7882 0.8392);fill-opacity:1;"/>
<path d="M84.7039 361.748C85.2871 360.032 86.849 358.839 88.6577 358.726L196.173 352.059C196.538 352.036 196.904 352.067 197.26 352.151L246.724 363.838C248.122 364.168 249.276 365.151 249.826 366.478L256.125 381.705L201.028 381.705L77.9199 381.705L84.7039 361.748Z" fill="#DBD5DC" style="fill:#DBD5DC;fill:color(display-p3 0.8588 0.8353 0.8627);fill-opacity:1;"/>
<path fill-rule="evenodd" clip-rule="evenodd" d="M196.479 352.053C198.222 352.633 199.807 354.61 200.376 361.427C200.893 367.637 201.715 376.026 202.357 381.705L256.11 381.705L249.811 366.478C249.262 365.151 248.108 364.168 246.709 363.838L197.245 352.151C196.993 352.092 196.736 352.059 196.479 352.053Z" fill="#E6EAE8" style="fill:#E6EAE8;fill:color(display-p3 0.9020 0.9176 0.9098);fill-opacity:1;"/>
<path d="M12.6561 212.667C12.2139 203.495 18.5243 195.371 27.5199 193.531L176.346 163.08C188.395 160.615 199.813 169.447 200.456 181.728L207.074 308.228C207.653 319.286 199.181 328.731 188.125 329.353L33.7326 338.046C25.473 338.511 18.4171 332.156 18.0187 323.893L12.6561 212.667Z" fill="#E6EAE8" style="fill:#E6EAE8;fill:color(display-p3 0.9020 0.9176 0.9098);fill-opacity:1;"/>
<path d="M166.854 152.956C166.854 152.956 172.087 152.369 175.354 152.956C184.236 154.554 193.324 167.483 193.324 167.483L167.822 162.64L166.854 152.956Z" fill="#E6EAE8" style="fill:#E6EAE8;fill:color(display-p3 0.9020 0.9176 0.9098);fill-opacity:1;"/>
<path d="M11.9144 318.207C11.9144 318.207 17.1478 317.62 20.4151 318.207C29.2965 319.805 27.0491 336.888 27.0491 336.888L10.1347 328.037L11.9144 318.207Z" fill="#E6EAE8" style="fill:#E6EAE8;fill:color(display-p3 0.9020 0.9176 0.9098);fill-opacity:1;"/>
<path fill-rule="evenodd" clip-rule="evenodd" d="M201.427 323.276L177.522 305.292L17.2578 308.172L17.7298 317.962C14.8639 317.874 11.8852 318.209 11.8852 318.209L10.1055 328.038L25.269 335.973C25.7461 336.258 26.2401 336.516 26.749 336.747L27.0199 336.889L27.0226 336.868C29.0715 337.748 31.3506 338.18 33.7296 338.046L188.122 329.354C193.37 329.059 198.035 326.776 201.427 323.276Z" fill="#C7C9D6" style="fill:#C7C9D6;fill:color(display-p3 0.7804 0.7882 0.8392);fill-opacity:1;"/>
<path d="M3.00391 206.888C3.00391 198.258 8.93496 190.759 17.3331 188.771L164.62 153.909C173.751 151.747 182.582 158.467 182.934 167.844L188.049 304.324C188.351 312.371 182.202 319.2 174.167 319.742L18.8993 330.206C10.2989 330.785 3.00391 323.965 3.00391 315.346V206.888Z" fill="white" style="fill:white;fill-opacity:1;"/>
<path fill-rule="evenodd" clip-rule="evenodd" d="M186.302 311.906C183.955 316.287 179.472 319.386 174.167 319.744L18.8983 330.208C10.298 330.787 3.00293 323.967 3.00293 315.348V308.429L177.511 305.293L186.302 311.906Z" fill="#E6EAE8" style="fill:#E6EAE8;fill:color(display-p3 0.9020 0.9176 0.9098);fill-opacity:1;"/>
<path d="M3.00488 206.781C3.00488 198.199 8.87049 190.729 17.2071 188.694L155.853 154.849C165.037 152.607 173.959 159.378 174.271 168.827L178.775 305.405C179.04 313.442 172.879 320.237 164.855 320.759L18.8645 330.245C10.277 330.803 3.00488 323.988 3.00488 315.383V206.781Z" fill="#DBD5DC" style="fill:#DBD5DC;fill:color(display-p3 0.8588 0.8353 0.8627);fill-opacity:1;"/>
<path d="M81.7725 291.49L108.51 287.514C110.253 287.255 111.839 288.558 111.923 290.319L113.144 315.962L106.428 354.538C106.428 354.538 104.706 365.732 113.144 365.732C118.036 365.732 126.804 365.732 133.311 365.732C137.971 365.732 141.845 369.314 142.214 373.96L142.765 380.887H81.7725V291.49Z" fill="#E6EAE8" style="fill:#E6EAE8;fill:color(display-p3 0.9020 0.9176 0.9098);fill-opacity:1;"/>
<path d="M64.1198 291.131L108.233 287.249C108.233 287.249 94.1167 339.479 91.5787 362.833C89.7603 379.565 110.35 380.945 110.35 380.945H65.9349C55.0182 380.945 46.8874 370.869 49.1934 360.199L64.1198 291.131Z" fill="#DBD5DC" style="fill:#DBD5DC;fill:color(display-p3 0.8588 0.8353 0.8627);fill-opacity:1;"/>
<path fill-rule="evenodd" clip-rule="evenodd" d="M105.39 380.947H65.9337C58.4089 380.947 52.2077 376.16 49.8359 369.69H92.2306C94.4167 376.041 100.817 378.841 105.39 380.054V380.947Z" fill="#C7C9D6" style="fill:#C7C9D6;fill:color(display-p3 0.7804 0.7882 0.8392);fill-opacity:1;"/>
<path fill-rule="evenodd" clip-rule="evenodd" d="M106.29 294.053L65.5887 297.768C63.7471 297.952 62.1051 296.608 61.9211 294.766C61.7372 292.925 63.081 291.283 64.9226 291.099L107.945 287.368C107.415 290.81 106.753 292.134 106.29 294.053Z" fill="#C7C9D6" style="fill:#C7C9D6;fill:color(display-p3 0.7804 0.7882 0.8392);fill-opacity:1;"/>
<path fill-rule="evenodd" clip-rule="evenodd" d="M112.135 236.85L108.423 233.382L108.27 226.636C108.225 224.944 107.582 223.424 106.483 222.411C105.384 221.397 103.92 220.975 102.414 221.236L96.4348 222.215L92.7105 218.75C91.6245 217.714 90.1629 217.27 88.6536 217.517C87.1443 217.765 85.7137 218.682 84.6825 220.064L81.1612 224.717L75.1573 225.7C72.0314 226.211 69.55 229.451 69.589 232.97L69.7421 239.716L66.2208 244.369C65.1777 245.733 64.6124 247.452 64.6507 249.142C64.6891 250.833 65.3281 252.355 66.4251 253.369L70.1308 256.837L70.2839 263.584C70.3305 265.274 70.9741 266.793 72.0727 267.806C73.1712 268.819 74.6345 269.243 76.1398 268.983L82.1437 268L85.8494 271.469C86.9354 272.504 88.397 272.948 89.9063 272.701C91.4155 272.454 92.8462 271.536 93.8773 270.154L97.4178 265.52L103.415 264.537C106.541 264.026 109.023 260.786 108.984 257.267L108.831 250.521L112.339 245.85C113.382 244.486 113.948 242.767 113.909 241.076C113.871 239.385 113.232 237.863 112.135 236.85Z" fill="white" style="fill:white;fill-opacity:1;"/>
<path fill-rule="evenodd" clip-rule="evenodd" d="M468.976 370.318C468.976 365.037 464.695 360.756 459.414 360.756H444.57C439.29 360.756 435.009 365.037 435.009 370.318C435.009 375.598 439.29 379.879 444.57 379.879H459.414C464.695 379.879 468.976 375.598 468.976 370.318Z" fill="#F49000" style="fill:#F49000;fill:color(display-p3 0.9569 0.5647 0.0000);fill-opacity:1;"/>
<path d="M579.798 233.129C579.798 215.726 561.988 195.96 533.817 192.183C520.123 190.347 514.385 191.917 506.905 193.284C504.375 193.747 492.268 198.793 486.76 197.534C481.252 196.275 481.157 195.685 469.606 190.766C462.152 187.593 457.781 190.477 448.359 196.275C442.221 200.052 427.818 218.117 422.27 233.129C416.81 251.18 414.05 261.191 414.05 282.834C414.05 323.668 446.947 356.696 487.249 356.696C527.552 356.696 556.243 338.361 556.243 297.526C559.548 262.588 579.798 250.532 579.798 233.129Z" fill="#58CC02" style="fill:#58CC02;fill:color(display-p3 0.3451 0.8000 0.0078);fill-opacity:1;"/>
<path fill-rule="evenodd" clip-rule="evenodd" d="M546.835 256.79C546.155 258.564 545.534 260.186 545.016 261.628C544.861 263.075 544.709 264.566 544.553 266.095C541.908 291.994 538.156 328.728 500.898 347.922C487.299 354.928 472.361 353.836 460.626 351.639C468.885 354.901 477.866 356.691 487.249 356.691C527.552 356.691 556.242 338.356 556.242 297.521C558.108 277.791 565.378 265.359 571.353 255.139C575.96 247.262 579.797 240.699 579.797 233.124C579.797 219.208 568.409 203.781 549.442 196.227C562.561 215.702 552.598 241.732 546.835 256.79Z" fill="#00BC35" style="fill:#00BC35;fill:color(display-p3 0.0000 0.7373 0.2078);fill-opacity:1;"/>
<path d="M507.638 225.934L595.1 308.328C599.788 312.744 598.294 319.622 593.152 323.482C573.298 338.388 536.129 339.854 513.022 318.086C489.914 296.317 479.325 256.548 492.561 228.72C495.316 222.928 502.95 221.517 507.638 225.934Z" fill="#58CC02" style="fill:#58CC02;fill:color(display-p3 0.3451 0.8000 0.0078);fill-opacity:1;"/>
<path fill-rule="evenodd" clip-rule="evenodd" d="M525.95 327.263L530.375 320.204C559.31 330.305 588.845 322.295 597.568 312.235C598.75 316.163 596.941 320.642 593.155 323.484C587.649 327.618 580.811 330.718 573.31 332.576L546.876 333.893C539.686 332.879 532.558 330.716 525.95 327.263Z" fill="#00BC35" style="fill:#00BC35;fill:color(display-p3 0.0000 0.7373 0.2078);fill-opacity:1;"/>
<path d="M419.327 265.363C414.299 262.596 418.014 247.109 420.933 237.068C423.853 227.027 429.315 217.294 434.994 209.388C441.643 200.134 454.863 190.018 463.551 191.3C455.433 196.926 456.359 206.611 459.136 208.534L459.218 208.578C462.329 210.265 465.081 211.757 487.48 204.459C487.544 204.413 487.612 204.37 487.685 204.332C487.685 204.332 496.791 200.11 502.506 197.562C508.279 194.989 518.678 192.134 518.678 192.134C520.523 191.584 521.994 192.142 522.232 193.721C522.637 196.402 522.122 198.886 520.958 201.151L529.76 199.68C531.561 199.68 533.151 200.765 533.057 202.457C532.821 206.698 531.106 210.58 528.366 213.624C534.642 221.808 534.353 228.532 530.645 238.23L522.949 256.895C516.423 274.009 499.821 280.58 482.953 274.131C462.349 266.255 456.847 252.042 459.692 241.499L448.06 237.068C446.766 238.116 445.946 238.867 445.748 239.227L443.058 245.88C435.161 260.232 424.668 267.713 419.327 265.363Z" fill="#89E219" style="fill:#89E219;fill:color(display-p3 0.5373 0.8863 0.0980);fill-opacity:1;"/>
<path d="M519.308 234.985C524.061 223.256 520.965 215.502 509.236 210.749C497.506 205.996 487.674 208.388 480.518 214.368C473.362 220.349 470.955 223.762 468.002 231.051C463.249 242.78 468.789 256.333 480.518 261.086C492.248 265.839 504.829 262.527 511.281 250.251C513.679 245.69 516.812 241.143 519.308 234.985Z" fill="white" style="fill:white;fill-opacity:1;"/>
<path d="M448.399 227.807C452.643 217.235 453.777 208.648 448.399 206.312C444.844 204.769 436.398 211.691 431.801 222.277L427.119 233.06C422.972 243.986 420.398 252.164 425.776 254.499C430.249 256.442 436.581 249.301 442.247 239.021C443.345 237.029 446.655 232.151 448.399 227.807Z" fill="white" style="fill:white;fill-opacity:1;"/>
<path d="M436.949 220.45C438.907 221.244 441.949 218.256 443.624 214.123C444.171 212.772 444.398 211.591 444.544 210.376C445.087 210.261 445.723 210.134 446.195 210.325C448.644 211.318 448.137 217.218 446.4 222.508C444.662 227.798 442.283 231.783 442.283 231.783C440.189 236.949 436.488 239.484 434.202 239.133C431.917 238.782 431.431 235.125 433.222 229.954C435.012 224.783 436.949 220.45 436.949 220.45Z" fill="#4B4B4B" style="fill:#4B4B4B;fill:color(display-p3 0.2941 0.2941 0.2941);fill-opacity:1;"/>
<path fill-rule="evenodd" clip-rule="evenodd" d="M473.14 225.738C477.113 227.347 481.454 225.116 483.154 220.923C483.709 219.552 483.886 218.127 483.734 216.772C484.718 216.831 486.749 217.173 487.706 217.561C492.673 219.573 494.772 224.643 492.648 229.885C490.524 235.126 487.706 240.692 487.706 240.692C485.406 245.713 479.881 248.392 474.717 246.648C469.553 244.903 467.597 238.646 469.721 233.404C471.845 228.163 473.14 225.738 473.14 225.738Z" fill="#4B4B4B" style="fill:#4B4B4B;fill:color(display-p3 0.2941 0.2941 0.2941);fill-opacity:1;"/>
<path d="M460.571 248.579C462.398 243.308 458.43 245.048 453.159 243.221C447.887 241.393 444.608 237.611 442.78 242.883C440.953 248.154 440.535 249.66 439.867 252.611C438.938 259.849 439.428 265.043 445.218 266.086C451.007 267.128 453.942 264.951 456.123 260.24C458.304 255.529 460.571 248.579 460.571 248.579Z" fill="#F49000" style="fill:#F49000;fill:color(display-p3 0.9569 0.5647 0.0000);fill-opacity:1;"/>
<path d="M456.554 247.33C455.277 246.28 454.867 245.504 451.378 244.294C447.888 243.084 446.486 242.602 444.757 243.154C444.757 243.154 443.122 248.79 442.44 251.614C441.149 256.959 441.441 261.26 445.31 261.844C447.996 262.249 449.372 260.922 451.047 258.896C453.69 255.699 455.458 250.492 456.554 247.33Z" fill="#DC6A01" style="fill:#DC6A01;fill:color(display-p3 0.8627 0.4157 0.0039);fill-opacity:1;"/>
<path d="M438.109 239.182C437.111 240.736 440.316 244.698 441.906 245.34C442.182 244.816 442.357 243.482 443.331 243.655C446.121 244.148 451.655 247.056 454.989 247.782C458.205 248.483 459.554 249.043 461.033 249.26C461.8 249.372 462.457 248.761 462.455 247.986C462.437 242.017 458.98 237.14 452.906 235.034C446.307 232.747 441.583 234.434 438.109 239.182Z" fill="#FFC200" style="fill:#FFC200;fill:color(display-p3 1.0000 0.7608 0.0000);fill-opacity:1;"/>
<path fill-rule="evenodd" clip-rule="evenodd" d="M448.164 261.486C449.219 260.976 450.074 260.05 451.027 258.897C453.01 256.499 454.5 252.972 455.583 250.023C454.564 249.947 453.156 250.119 451.212 250.719C444.767 252.614 445.485 258.989 447.167 260.765C447.457 261.071 447.794 261.307 448.164 261.486Z" fill="#FFB8D1" style="fill:#FFB8D1;fill:color(display-p3 1.0000 0.7216 0.8196);fill-opacity:1;"/>
<path d="M444.505 241.07C441.534 240.343 438.5 240.353 442.283 244.608L458.115 248.752L459.735 249.269C460.577 249.434 460.96 248.5 460.208 248.087C455.234 245.357 446.909 241.658 444.505 241.07Z" fill="#F49000" style="fill:#F49000;fill:color(display-p3 0.9569 0.5647 0.0000);fill-opacity:1;"/>
<path fill-rule="evenodd" clip-rule="evenodd" d="M545.66 346.303C540.357 341.339 531.511 341.087 526.152 345.677C520.794 350.267 516.991 355.724 511.633 360.315C506.275 364.905 505.041 371.322 509.631 376.68C514.222 382.039 524.467 380.683 531.06 379.624C537.654 378.564 543.894 372.912 547.661 365.848C551.429 358.784 551.194 351.484 545.66 346.303Z" fill="#F49000" style="fill:#F49000;fill:color(display-p3 0.9569 0.5647 0.0000);fill-opacity:1;"/>
<path fill-rule="evenodd" clip-rule="evenodd" d="M544.303 352.578C540.315 348.967 533.217 349.26 528.654 353.169C524.091 357.078 520.731 361.582 516.168 365.491C511.605 369.4 510.256 374.517 513.649 378.478C517.042 382.438 525.354 380.803 530.714 379.603C536.074 378.403 541.405 373.61 544.826 367.843C548.248 362.076 548.464 356.346 544.303 352.578Z" fill="#FF7A00" style="fill:#FF7A00;fill:color(display-p3 1.0000 0.4784 0.0000);fill-opacity:1;"/>
<path d="M431.64 287.872C432.429 288.043 432.944 288.814 432.748 289.597C431.952 292.775 430.446 295.756 427.197 296.758C426.118 297.091 425.017 297.159 423.956 296.957C422.895 296.755 421.895 296.289 421.014 295.583C420.132 294.878 419.386 293.947 418.819 292.846C418.251 291.744 417.872 290.492 417.704 289.161C417.597 288.311 417.577 287.439 417.644 286.566C417.707 285.746 418.496 285.215 419.304 285.369L425.919 286.626L431.64 287.872Z" fill="#8EE000" style="fill:#8EE000;fill:color(display-p3 0.5569 0.8784 0.0000);fill-opacity:1;"/>
<path d="M468.704 293.254C469.522 293.343 470.121 294.082 469.931 294.883C469.682 295.934 469.292 296.95 468.769 297.902C468.008 299.289 466.98 300.513 465.745 301.504C464.511 302.495 463.093 303.232 461.573 303.675C460.053 304.118 458.461 304.257 456.888 304.084C455.314 303.911 453.79 303.43 452.402 302.669C451.014 301.907 449.79 300.88 448.8 299.645C447.809 298.41 447.071 296.992 446.629 295.473C446.325 294.431 446.164 293.355 446.149 292.274C446.137 291.451 446.883 290.86 447.7 290.949L458.202 292.102L468.704 293.254Z" fill="#8EE000" style="fill:#8EE000;fill:color(display-p3 0.5569 0.8784 0.0000);fill-opacity:1;"/>
<path d="M447.531 307.477C448.323 307.601 448.88 308.331 448.763 309.125C448.217 312.828 447.199 315.822 443.45 316.842C442.048 317.224 440.581 317.331 439.134 317.157C437.686 316.983 436.287 316.532 435.015 315.829C433.743 315.127 432.623 314.186 431.72 313.061C430.817 311.936 430.148 310.65 429.751 309.274C429.493 308.379 429.353 307.457 429.335 306.531C429.318 305.709 430.07 305.124 430.887 305.223L440.429 306.369L447.531 307.477Z" fill="#8EE000" style="fill:#8EE000;fill:color(display-p3 0.5569 0.8784 0.0000);fill-opacity:1;"/>
<path d="M2.47949 390.158C2.47949 383.988 7.48066 378.987 13.6499 378.987H542.05C548.219 378.987 553.221 383.988 553.221 390.158V400.792H2.47949V390.158Z" fill="#FFAD00" style="fill:#FFAD00;fill:color(display-p3 1.0000 0.6784 0.0000);fill-opacity:1;"/>
<path d="M210.439 76.0205C216.828 106.983 200.814 122.914 192.009 127.01" stroke="#FFC600" style="stroke:#FFC600;stroke:color(display-p3 1.0000 0.7765 0.0000);stroke-opacity:1;" stroke-width="4.46817"/>
<path d="M189.126 121.07C189.96 120.704 190.933 120.882 191.584 121.519L197.988 127.78C198.97 128.74 198.861 130.351 197.759 131.17L186.718 139.379C185.792 140.067 184.494 139.937 183.723 139.079L175.707 130.152C174.69 129.019 175.079 127.224 176.473 126.613L189.126 121.07Z" fill="#FFC600" style="fill:#FFC600;fill:color(display-p3 1.0000 0.7765 0.0000);fill-opacity:1;"/>
<path d="M132.062 26.3607C127.201 19.863 131.3 10.5475 139.374 9.74111L221.743 1.51531C225.378 1.15226 228.939 2.7186 231.127 5.64398L275.027 64.3227C279.888 70.8204 275.789 80.1359 267.715 80.9423L185.346 89.1681C181.711 89.5311 178.15 87.9648 175.962 85.0394L132.062 26.3607Z" fill="#3D3D3D" style="fill:#3D3D3D;fill:color(display-p3 0.2392 0.2392 0.2392);fill-opacity:1;"/>
<path d="M132.422 26.8139C129.674 23.1038 132.008 17.8124 136.601 17.3411L216.807 9.11206C220.469 8.73636 224.057 10.3195 226.248 13.2772L269.392 71.5148C272.141 75.2249 269.806 80.5163 265.213 80.9876L182.476 89.4763C180.383 89.691 178.333 88.7864 177.081 87.0962L132.422 26.8139Z" fill="#4B4B4B" style="fill:#4B4B4B;fill:color(display-p3 0.2941 0.2941 0.2941);fill-opacity:1;"/>
<path d="M166.589 36.1132C174.44 23.2215 194.569 21.1531 211.549 31.4932L215.61 33.966C232.59 44.3061 239.992 63.1393 232.141 76.0309L222.861 91.0422C215.011 103.934 194.881 106.002 177.901 95.6622L173.84 93.1894C156.86 82.8493 149.459 64.0161 157.309 51.1245L166.589 36.1132Z" fill="#3D3D3D" style="fill:#3D3D3D;fill:color(display-p3 0.2392 0.2392 0.2392);fill-opacity:1;"/>
<ellipse cx="36.6996" cy="23.9426" rx="36.6996" ry="23.9426" transform="matrix(0.84619 0.532881 -0.532883 0.846189 169.372 34.8125)" fill="#4B4B4B" style="fill:#4B4B4B;fill:color(display-p3 0.2941 0.2941 0.2941);fill-opacity:1;"/>
<ellipse cx="29.2149" cy="18.1178" rx="29.2149" ry="18.1178" transform="matrix(0.84619 0.532881 -0.532883 0.846189 172.274 45.3457)" fill="#3D3D3D" style="fill:#3D3D3D;fill:color(display-p3 0.2392 0.2392 0.2392);fill-opacity:1;"/>
<path d="M115.812 134.46C106.451 125.745 89.8483 109.553 93.347 98.8671L82.3051 111.533C80.5496 124.85 92.9465 141.082 99.5718 146.814C100.046 147.224 100.746 146.86 100.721 146.234L100.216 133.853C100.196 133.374 100.627 133.002 101.098 133.09L115.164 135.737C115.898 135.875 116.359 134.969 115.812 134.46Z" fill="#FFC600" style="fill:#FFC600;fill:color(display-p3 1.0000 0.7765 0.0000);fill-opacity:1;"/>
<path fill-rule="evenodd" clip-rule="evenodd" d="M129.414 55.3036L100.119 35.2607L63.0199 98.3497L33.3838 138.444L33.4654 138.5C33.1991 138.776 32.9549 139.075 32.7348 139.396C29.6366 143.925 32.5026 151.275 39.1361 155.813C45.7697 160.352 53.6588 160.36 56.757 155.832C56.9771 155.51 57.167 155.174 57.3277 154.826L57.406 154.88L83.9624 112.853L129.414 55.3036Z" fill="#E6EAE8" style="fill:#E6EAE8;fill:color(display-p3 0.9020 0.9176 0.9098);fill-opacity:1;"/>
<ellipse cx="17.7475" cy="12.4913" rx="17.7475" ry="12.4913" transform="matrix(0.825319 0.564667 -0.564668 0.825318 103.772 29.9795)" fill="#C7C9D6" style="fill:#C7C9D6;fill:color(display-p3 0.7804 0.7882 0.8392);fill-opacity:1;"/>
<path fill-rule="evenodd" clip-rule="evenodd" d="M101.812 58.6722L109.66 47.2013C112.15 47.3681 115.159 47.8032 117.609 49.4801C122.635 52.9186 125.038 58.3965 123.36 62.8743C118.644 65.8832 110.929 65.1487 104.305 60.6165C103.416 60.0084 102.584 59.3572 101.812 58.6722Z" fill="#B2BCD0" style="fill:#B2BCD0;fill:color(display-p3 0.6980 0.7373 0.8157);fill-opacity:1;"/>
<path fill-rule="evenodd" clip-rule="evenodd" d="M89.2433 106.079C88.6066 106.241 87.9114 106.358 87.1552 106.422C83.6373 106.717 79.3309 105.725 75.3277 102.986C71.3245 100.247 68.8393 96.5925 67.84 93.2066C67.6251 92.4787 67.4829 91.788 67.4033 91.1357L58.235 104.839C59.6801 109.795 62.8276 113.08 66.6378 115.687C70.448 118.294 74.6502 120.037 79.7931 119.588L89.2433 106.079Z" fill="#FFC600" style="fill:#FFC600;fill:color(display-p3 1.0000 0.7765 0.0000);fill-opacity:1;"/>
<path d="M412.701 108.284C413.651 107.756 413.557 106.155 412.56 105.722C411.208 105.136 409.699 104.342 408.691 103.393C407.555 102.324 406.562 100.576 405.827 99.0176C405.35 98.0046 403.65 98.0114 403.182 99.0286C402.466 100.583 401.499 102.325 400.392 103.393C399.362 104.387 397.856 105.189 396.522 105.769C395.536 106.198 395.415 107.769 396.34 108.316C397.719 109.132 399.316 110.207 400.392 111.341C401.498 112.508 402.592 114.189 403.372 115.501C403.857 116.318 405.112 116.312 405.59 115.491C406.391 114.115 407.533 112.332 408.691 111.141C409.736 110.066 411.315 109.056 412.701 108.284Z" fill="white" style="fill:white;fill-opacity:1;"/>
<path d="M151.603 113.035C152.551 112.507 152.458 110.91 151.462 110.478C150.113 109.893 148.607 109.1 147.601 108.154C146.467 107.087 145.477 105.342 144.743 103.787C144.267 102.776 142.571 102.783 142.103 103.798C141.388 105.349 140.424 107.088 139.319 108.154C138.291 109.145 136.788 109.946 135.456 110.525C134.472 110.952 134.352 112.521 135.275 113.067C136.651 113.88 138.245 114.953 139.319 116.086C140.423 117.25 141.515 118.927 142.293 120.237C142.777 121.052 144.03 121.046 144.507 120.227C145.306 118.853 146.446 117.075 147.601 115.886C148.644 114.813 150.22 113.804 151.603 113.035Z" fill="white" style="fill:white;fill-opacity:1;"/>
<path d="M389.7 79.6745C390.587 79.2212 390.502 77.7898 389.571 77.4354C387.249 76.5519 384.031 75.1012 382.076 73.2622C379.905 71.2196 378.086 67.5117 376.977 64.8723C376.58 63.9262 375.068 63.9324 374.679 64.8819C373.598 67.5194 371.825 71.219 369.707 73.2622C367.718 75.1797 364.541 76.6209 362.268 77.4808C361.347 77.8294 361.236 79.2353 362.1 79.7082C364.383 80.9577 367.671 82.9617 369.707 85.1085C371.7 87.2118 373.668 90.4338 374.811 92.4511C375.24 93.2086 376.381 93.2016 376.803 92.4401C377.967 90.3408 380.005 86.9412 382.076 84.81C384.07 82.7576 387.371 80.864 389.7 79.6745Z" fill="white" style="fill:white;fill-opacity:1;"/>
</svg>
