<svg width="600" height="500" viewBox="0 0 600 500" fill="none" xmlns="http://www.w3.org/2000/svg">
<g clip-path="url(#clip0_21476_54170)">
<path fill-rule="evenodd" clip-rule="evenodd" d="M451.438 469.921H50.4227L54.6261 446.512C55.6201 441.36 54.1855 436.764 50.6818 433.874L24.184 411.557C12.5463 401.912 12.9027 383.521 25.0388 367.446L53.4333 330.325C57.0912 325.497 58.7386 320.07 57.9673 315.389L51.3781 279.818C46.9982 256.996 60.0857 246.919 77.8245 236.207C88.7738 229.594 99.6871 222.072 108.058 216.302C113.248 212.724 117.461 209.82 120.098 208.225C126.988 204.058 134.07 192.099 136.176 186.902L146.978 151.735C154.052 134.456 178.284 121.506 196.888 119.055L239.709 113.518C245.295 112.766 251.03 109.883 255.507 105.575L287.638 70.7673C302.519 56.3836 323.512 50.7058 337.989 57.1495L371.301 72.3853C375.64 74.3415 381.333 74.1536 386.96 71.8686L430.044 54.1824C448.75 46.571 466.742 50.8503 473.229 64.4541L489.397 91.4666C491.361 95.5486 495.489 98.0716 500.76 98.4104L541.48 100.783C558.997 101.949 569.179 115.042 565.902 132.186L559.763 168.193C558.769 173.344 560.204 177.941 563.707 180.831L590.539 202.935C602.232 212.547 601.875 230.973 589.684 247.045L559.763 287.652C556.117 292.493 554.492 297.926 555.291 302.603L559.763 334.204C562.461 349.747 550.541 363.145 532.747 373.814L491.967 398.337C486.628 401.558 482.36 406.359 480.215 411.557L464.159 451.613C461.654 457.778 457.102 464.157 451.438 469.921Z" fill="#D7FFB8" style="fill:#D7FFB8;fill:color(display-p3 0.8422 1.0000 0.7208);fill-opacity:1;"/>
<rect x="-0.0625" y="449.325" width="133.21" height="51.1265" rx="25.5632" fill="#89E219" style="fill:#89E219;fill:color(display-p3 0.5373 0.8863 0.0980);fill-opacity:1;"/>
<path d="M25.7754 438.33C25.7754 427.182 34.8129 418.145 45.9613 418.145H77.1925C88.3409 418.145 97.3784 427.182 97.3784 438.33V461.162H47.2852C35.4057 461.162 25.7754 451.532 25.7754 439.653V438.33Z" fill="#89E219" style="fill:#89E219;fill:color(display-p3 0.5373 0.8863 0.0980);fill-opacity:1;"/>
<path d="M539.941 377.873C539.941 366.725 530.904 357.688 519.756 357.688H485.937C474.789 357.688 465.751 366.725 465.751 377.873V400.705H518.432C530.311 400.705 539.941 391.075 539.941 379.196V377.873Z" fill="#89E219" style="fill:#89E219;fill:color(display-p3 0.5373 0.8863 0.0980);fill-opacity:1;"/>
<path d="M269.131 169.13L269.131 147.181L269.131 125.232" stroke="#58CC02" style="stroke:#58CC02;stroke:color(display-p3 0.3451 0.8000 0.0078);stroke-opacity:1;" stroke-width="4.80616" stroke-linecap="round"/>
<path d="M301.559 123.632C304.375 123.632 306.223 126.614 305.132 129.211C304.114 131.632 303.182 134.223 303.182 135.597C303.182 136.97 304.114 139.562 305.132 141.983C306.223 144.579 304.375 147.562 301.559 147.562L277.127 147.562C276.066 147.562 275.205 146.701 275.205 145.639L275.205 125.554C275.205 124.493 276.066 123.632 277.127 123.632L301.559 123.632Z" fill="#89E219" style="fill:#89E219;fill:color(display-p3 0.5373 0.8863 0.0980);fill-opacity:1;"/>
<path d="M360.59 228.437C360.59 210.215 350.963 192.739 333.826 179.854C316.69 166.969 293.448 159.73 269.213 159.73C244.978 159.73 221.736 166.969 204.6 179.854C187.463 192.739 177.836 210.215 177.836 228.437L269.213 228.437H360.59Z" fill="#FDB02A" style="fill:#FDB02A;fill:color(display-p3 0.9922 0.6902 0.1647);fill-opacity:1;"/>
<path fill-rule="evenodd" clip-rule="evenodd" d="M289.052 179.855C294.843 192.74 298.095 210.216 298.095 228.438H267.221L177.863 228.438C177.864 210.217 187.492 192.743 204.627 179.858C221.423 167.229 244.084 160.024 267.797 159.743C275.777 160.074 283.398 167.272 289.052 179.855Z" fill="#FFC600" style="fill:#FFC600;fill:color(display-p3 1.0000 0.7765 0.0000);fill-opacity:1;"/>
<rect x="181.892" y="232.186" width="174.491" height="57.6465" fill="#FDB02A" style="fill:#FDB02A;fill:color(display-p3 0.9922 0.6902 0.1647);fill-opacity:1;"/>
<rect x="278.304" y="232.186" width="78.083" height="57.6464" fill="#F49000" style="fill:#F49000;fill:color(display-p3 0.9569 0.5647 0.0000);fill-opacity:1;"/>
<rect x="181.893" y="231.997" width="15.5486" height="52.1006" fill="#FFC600" style="fill:#FFC600;fill:color(display-p3 1.0000 0.7765 0.0000);fill-opacity:1;"/>
<rect x="340.815" y="231.997" width="15.5486" height="52.1006" fill="#FDB02A" style="fill:#FDB02A;fill:color(display-p3 0.9922 0.6902 0.1647);fill-opacity:1;"/>
<rect x="214.169" y="231.997" width="19.4066" height="52.1006" fill="#FFC600" style="fill:#FFC600;fill:color(display-p3 1.0000 0.7765 0.0000);fill-opacity:1;"/>
<rect x="256.042" y="231.997" width="26.422" height="52.1006" fill="#FFC600" style="fill:#FFC600;fill:color(display-p3 1.0000 0.7765 0.0000);fill-opacity:1;"/>
<rect x="304.694" y="231.997" width="19.4066" height="52.1006" fill="#FDB02A" style="fill:#FDB02A;fill:color(display-p3 0.9922 0.6902 0.1647);fill-opacity:1;"/>
<path d="M176.4 226.418C176.4 224.295 178.122 222.573 180.245 222.573H358.142C360.265 222.573 361.987 224.295 361.987 226.418V234.593C361.987 236.716 360.265 238.437 358.142 238.437H180.245C178.122 238.437 176.4 236.716 176.4 234.593V226.418Z" fill="#FFC600" style="fill:#FFC600;fill:color(display-p3 1.0000 0.7765 0.0000);fill-opacity:1;"/>
<rect x="171.834" y="214.235" width="194.615" height="13.7947" rx="3.84493" fill="#FBE56D" style="fill:#FBE56D;fill:color(display-p3 0.9843 0.8980 0.4275);fill-opacity:1;"/>
<path d="M295.988 218.08C295.988 215.957 297.71 214.235 299.833 214.235H362.593C364.716 214.235 366.438 215.957 366.438 218.08V224.185C366.438 226.309 364.716 228.03 362.593 228.03H299.833C297.71 228.03 295.988 226.309 295.988 224.185V218.08Z" fill="#FFC600" style="fill:#FFC600;fill:color(display-p3 1.0000 0.7765 0.0000);fill-opacity:1;"/>
<rect x="82.1475" y="285.503" width="427.8" height="214.951" fill="#F49000" style="fill:#F49000;fill:color(display-p3 0.9569 0.5647 0.0000);fill-opacity:1;"/>
<path d="M450.455 441.814H511.482C514.667 441.814 517.249 444.397 517.249 447.582V500.451H450.455V441.814Z" fill="#FFA319" style="fill:#FFA319;fill:color(display-p3 1.0000 0.6385 0.0962);fill-opacity:1;"/>
<rect x="86.833" y="280.085" width="432.089" height="18.2318" rx="4.80616" fill="#FDB02A" style="fill:#FDB02A;fill:color(display-p3 0.9922 0.6902 0.1647);fill-opacity:1;"/>
<rect x="69.1436" y="285.499" width="376.754" height="214.951" fill="#FDB02A" style="fill:#FDB02A;fill:color(display-p3 0.9922 0.6902 0.1647);fill-opacity:1;"/>
<path d="M133.181 340.084H347.996V500.448H133.181L133.181 340.084Z" fill="#F49000" style="fill:#F49000;fill:color(display-p3 0.9569 0.5647 0.0000);fill-opacity:1;"/>
<path d="M384.834 447.584C384.834 444.399 387.416 441.817 390.601 441.817L455.188 441.816C458.373 441.816 460.956 444.399 460.956 447.584V500.453L384.834 500.453V447.584Z" fill="#FFC600" style="fill:#FFC600;fill:color(display-p3 1.0000 0.7765 0.0000);fill-opacity:1;"/>
<path d="M62.5791 447.577C62.5791 444.392 65.1612 441.81 68.3465 441.81L105.569 441.81C108.754 441.81 111.336 444.392 111.336 447.577V500.446L62.5791 500.446V447.577Z" fill="#FFC600" style="fill:#FFC600;fill:color(display-p3 1.0000 0.7765 0.0000);fill-opacity:1;"/>
<path d="M62.5791 284.886C62.5791 282.232 64.7309 280.08 67.3853 280.08H437.63C440.285 280.08 442.437 282.232 442.437 284.886V293.506C442.437 296.16 440.285 298.312 437.63 298.312H67.3853C64.7309 298.312 62.5791 296.16 62.5791 293.506V284.886Z" fill="#FFC600" style="fill:#FFC600;fill:color(display-p3 1.0000 0.7765 0.0000);fill-opacity:1;"/>
<path d="M410.095 359.291C410.095 354.178 414.239 350.034 419.351 350.034V350.034C424.463 350.034 428.607 354.178 428.607 359.291V425.035C428.607 426.097 427.747 426.958 426.685 426.958H412.017C410.955 426.958 410.095 426.097 410.095 425.035V359.291Z" fill="#FBE56D" style="fill:#FBE56D;fill:color(display-p3 0.9843 0.8980 0.4275);fill-opacity:1;"/>
<path d="M371.561 359.291C371.561 354.178 375.705 350.034 380.817 350.034V350.034C385.929 350.034 390.073 354.178 390.073 359.291V425.035C390.073 426.097 389.213 426.958 388.151 426.958H373.483C372.421 426.958 371.561 426.097 371.561 425.035V359.291Z" fill="#FBE56D" style="fill:#FBE56D;fill:color(display-p3 0.9843 0.8980 0.4275);fill-opacity:1;"/>
<path d="M86.8408 359.291C86.8408 354.178 90.985 350.034 96.0972 350.034V350.034C101.209 350.034 105.354 354.178 105.354 359.291V425.035C105.354 426.097 104.493 426.958 103.431 426.958H88.7633C87.7015 426.958 86.8408 426.097 86.8408 425.035V359.291Z" fill="#FBE56D" style="fill:#FBE56D;fill:color(display-p3 0.9843 0.8980 0.4275);fill-opacity:1;"/>
<path d="M216.362 396.186C216.362 394.062 218.084 392.341 220.207 392.341H277.075C279.199 392.341 280.92 394.062 280.92 396.186V471.313H216.362V396.186Z" fill="#EE7404" style="fill:#EE7404;fill:color(display-p3 0.9337 0.4540 0.0139);fill-opacity:1;"/>
<path d="M294.212 358.868C292.97 359.894 291.378 360.51 289.641 360.51C285.675 360.51 282.459 357.295 282.459 353.329C282.459 349.363 285.675 346.147 289.641 346.147C289.862 346.147 290.079 346.157 290.294 346.177V346.147H317.718V346.177C317.933 346.157 318.151 346.147 318.371 346.147C322.338 346.147 325.554 349.363 325.554 353.329C325.554 357.295 322.338 360.51 318.371 360.51C316.635 360.51 315.042 359.894 313.801 358.868V458.435H316.068C317.51 458.435 318.679 459.604 318.679 461.046V463.658C318.679 465.1 317.51 466.269 316.068 466.269H291.945C290.502 466.269 289.333 465.1 289.333 463.658V461.046C289.333 459.604 290.502 458.435 291.945 458.435H294.212V358.868Z" fill="#FBE56D" style="fill:#FBE56D;fill:color(display-p3 0.9843 0.8980 0.4275);fill-opacity:1;"/>
<path d="M294.212 358.868C292.97 359.894 291.378 360.51 289.641 360.51C285.675 360.51 282.459 357.295 282.459 353.329C282.459 349.363 285.675 346.147 289.641 346.147C289.861 346.147 290.079 346.157 290.294 346.177V346.147H317.718V346.177C317.933 346.157 318.151 346.147 318.371 346.147C322.338 346.147 325.553 349.363 325.553 353.329C325.553 357.295 322.338 360.51 318.371 360.51C316.635 360.51 315.042 359.894 313.8 358.868V369.248H294.212V358.868Z" fill="#FFC600" style="fill:#FFC600;fill:color(display-p3 1.0000 0.7765 0.0000);fill-opacity:1;"/>
<path d="M241.46 358.867C240.218 359.893 238.626 360.509 236.889 360.509C232.923 360.509 229.707 357.294 229.707 353.328C229.707 349.362 232.923 346.146 236.889 346.146C237.11 346.146 237.327 346.156 237.542 346.176V346.146H264.966V346.176C265.181 346.156 265.399 346.146 265.619 346.146C269.586 346.146 272.802 349.362 272.802 353.328C272.802 357.294 269.586 360.509 265.619 360.509C263.883 360.509 262.29 359.893 261.049 358.867V458.434H263.316C264.758 458.434 265.928 459.603 265.928 461.045V463.657C265.928 465.099 264.758 466.268 263.316 466.268H239.193C237.751 466.268 236.581 465.099 236.581 463.657V461.045C236.581 459.603 237.751 458.434 239.193 458.434H241.46V358.867Z" fill="#FBE56D" style="fill:#FBE56D;fill:color(display-p3 0.9843 0.8980 0.4275);fill-opacity:1;"/>
<path d="M241.46 358.867C240.218 359.893 238.626 360.509 236.889 360.509C232.923 360.509 229.707 357.294 229.707 353.328C229.707 349.362 232.923 346.146 236.889 346.146C237.11 346.146 237.327 346.156 237.542 346.176V346.146H264.966V346.176C265.181 346.156 265.399 346.146 265.619 346.146C269.586 346.146 272.801 349.362 272.801 353.328C272.801 357.294 269.586 360.509 265.619 360.509C263.883 360.509 262.29 359.893 261.048 358.867V369.247H241.46V358.867Z" fill="#FFC600" style="fill:#FFC600;fill:color(display-p3 1.0000 0.7765 0.0000);fill-opacity:1;"/>
<path d="M171.429 358.867C170.187 359.893 168.595 360.509 166.858 360.509C162.891 360.509 159.676 357.294 159.676 353.328C159.676 349.362 162.891 346.146 166.858 346.146C167.078 346.146 167.296 346.156 167.511 346.176V346.146H194.935V346.176C195.15 346.156 195.368 346.146 195.588 346.146C199.555 346.146 202.77 349.362 202.77 353.328C202.77 357.294 199.555 360.509 195.588 360.509C193.852 360.509 192.259 359.893 191.017 358.867V458.434H193.284C194.727 458.434 195.896 459.603 195.896 461.045V463.657C195.896 465.099 194.727 466.268 193.284 466.268H169.162C167.719 466.268 166.55 465.099 166.55 463.657V461.045C166.55 459.603 167.719 458.434 169.162 458.434H171.429V358.867Z" fill="#FBE56D" style="fill:#FBE56D;fill:color(display-p3 0.9843 0.8980 0.4275);fill-opacity:1;"/>
<path d="M171.429 358.867C170.187 359.893 168.595 360.509 166.858 360.509C162.891 360.509 159.676 357.294 159.676 353.328C159.676 349.362 162.891 346.146 166.858 346.146C167.078 346.146 167.296 346.156 167.511 346.176V346.146H194.935V346.176C195.15 346.156 195.368 346.146 195.588 346.146C199.554 346.146 202.77 349.362 202.77 353.328C202.77 357.294 199.554 360.509 195.588 360.509C193.851 360.509 192.259 359.893 191.017 358.867V369.247H171.429V358.867Z" fill="#FFC600" style="fill:#FFC600;fill:color(display-p3 1.0000 0.7765 0.0000);fill-opacity:1;"/>
<path d="M120.567 358.867C119.325 359.893 117.732 360.509 115.996 360.509C112.029 360.509 108.813 357.294 108.813 353.328C108.813 349.362 112.029 346.146 115.996 346.146C116.216 346.146 116.434 346.156 116.649 346.176V346.146H144.073V346.176C144.288 346.156 144.506 346.146 144.726 346.146C148.692 346.146 151.908 349.362 151.908 353.328C151.908 357.294 148.692 360.509 144.726 360.509C142.989 360.509 141.397 359.893 140.155 358.867V458.434H142.422C143.865 458.434 145.034 459.603 145.034 461.045V463.657C145.034 465.099 143.865 466.268 142.422 466.268H118.299C116.857 466.268 115.688 465.099 115.688 463.657V461.045C115.688 459.603 116.857 458.434 118.299 458.434H120.567V358.867Z" fill="#FBE56D" style="fill:#FBE56D;fill:color(display-p3 0.9843 0.8980 0.4275);fill-opacity:1;"/>
<path d="M120.566 358.867C119.325 359.893 117.732 360.509 115.996 360.509C112.029 360.509 108.813 357.294 108.813 353.328C108.813 349.362 112.029 346.146 115.996 346.146C116.216 346.146 116.434 346.156 116.649 346.176V346.146H144.072V346.176C144.288 346.156 144.505 346.146 144.725 346.146C148.692 346.146 151.908 349.362 151.908 353.328C151.908 357.294 148.692 360.509 144.725 360.509C142.989 360.509 141.397 359.893 140.155 358.867V369.247H120.566V358.867Z" fill="#FFC600" style="fill:#FFC600;fill:color(display-p3 1.0000 0.7765 0.0000);fill-opacity:1;"/>
<path fill-rule="evenodd" clip-rule="evenodd" d="M135.641 345.932H168.579C165.662 345.932 164.276 351.132 164.276 354.766C164.276 386.243 164.276 433.709 164.276 433.709C164.276 437.77 160.453 439.251 157.598 436.999L150.189 431.156C148.746 430.018 146.868 430.018 145.425 431.156L138.016 436.999C135.161 439.251 131.338 437.771 131.338 433.709C131.338 433.709 131.338 385.528 131.338 354.766C131.338 351.132 132.3 345.932 135.641 345.932Z" fill="#89E219" style="fill:#89E219;fill:color(display-p3 0.5373 0.8863 0.0980);fill-opacity:1;"/>
<path fill-rule="evenodd" clip-rule="evenodd" d="M257.455 345.932H290.393C287.476 345.932 286.09 351.132 286.09 354.766C286.09 386.243 286.09 433.709 286.09 433.709C286.09 437.77 282.267 439.251 279.412 436.999L272.003 431.156C270.561 430.018 268.682 430.018 267.239 431.156L259.831 436.999C256.976 439.251 253.152 437.771 253.152 433.709C253.152 433.709 253.152 385.528 253.152 354.766C253.152 351.132 254.115 345.932 257.455 345.932Z" fill="#89E219" style="fill:#89E219;fill:color(display-p3 0.5373 0.8863 0.0980);fill-opacity:1;"/>
<path fill-rule="evenodd" clip-rule="evenodd" d="M164.366 354.559H131.428C131.464 350.938 132.453 345.936 135.729 345.936H168.668C165.807 345.936 164.418 350.938 164.366 354.559Z" fill="#71D70E" style="fill:#71D70E;fill:color(display-p3 0.4431 0.8431 0.0549);fill-opacity:1;"/>
<path fill-rule="evenodd" clip-rule="evenodd" d="M286.179 354.56H253.24C253.277 350.939 254.266 345.938 257.542 345.938H290.48C287.619 345.938 286.231 350.939 286.179 354.56Z" fill="#71D70E" style="fill:#71D70E;fill:color(display-p3 0.4431 0.8431 0.0549);fill-opacity:1;"/>
<path fill-rule="evenodd" clip-rule="evenodd" d="M280.126 392.951L278.447 391.274V388.489C278.444 387.79 278.162 387.121 277.665 386.63C277.168 386.139 276.495 385.867 275.796 385.873H273.022L271.337 384.196C270.846 383.697 270.175 383.416 269.475 383.416C268.774 383.416 268.103 383.697 267.612 384.196L265.935 385.873H263.15C261.699 385.873 260.518 387.038 260.499 388.489V391.274L258.823 392.951C258.326 393.442 258.047 394.111 258.047 394.809C258.047 395.507 258.326 396.176 258.823 396.667L260.499 398.343V401.129C260.503 401.828 260.785 402.496 261.282 402.987C261.779 403.477 262.451 403.75 263.15 403.745H265.935L267.612 405.421C268.103 405.92 268.774 406.202 269.475 406.202C270.175 406.202 270.846 405.92 271.337 405.421L273.022 403.753H275.805C277.255 403.753 278.437 402.588 278.455 401.138V398.352L280.126 396.667C280.623 396.176 280.902 395.507 280.902 394.809C280.902 394.111 280.623 393.442 280.126 392.951Z" fill="#D7FFB8" style="fill:#D7FFB8;fill:color(display-p3 0.8422 1.0000 0.7208);fill-opacity:1;"/>
<path fill-rule="evenodd" clip-rule="evenodd" d="M295.996 134.46L294.962 133.427V131.712C294.96 131.282 294.787 130.87 294.481 130.568C294.174 130.266 293.76 130.098 293.33 130.102H291.622L290.584 129.069C290.282 128.762 289.869 128.589 289.438 128.589C289.006 128.589 288.593 128.762 288.291 129.069L287.259 130.102H285.543C284.65 130.101 283.923 130.819 283.911 131.712V133.427L282.879 134.46C282.573 134.762 282.401 135.174 282.401 135.604C282.401 136.033 282.573 136.445 282.879 136.748L283.911 137.78V139.495C283.914 139.925 284.087 140.337 284.393 140.639C284.699 140.941 285.113 141.109 285.543 141.106H287.259L288.291 142.138C288.593 142.445 289.006 142.618 289.438 142.618C289.869 142.618 290.282 142.445 290.584 142.138L291.622 141.111H293.335C294.228 141.111 294.956 140.393 294.967 139.5V137.785L295.996 136.748C296.302 136.445 296.474 136.033 296.474 135.604C296.474 135.174 296.302 134.762 295.996 134.46Z" fill="#D7FFB8" style="fill:#D7FFB8;fill:color(display-p3 0.8422 1.0000 0.7208);fill-opacity:1;"/>
<path fill-rule="evenodd" clip-rule="evenodd" d="M158.836 392.951L157.157 391.274V388.489C157.154 387.79 156.872 387.121 156.375 386.63C155.878 386.139 155.205 385.867 154.506 385.873H151.732L150.047 384.196C149.556 383.697 148.885 383.416 148.184 383.416C147.484 383.416 146.813 383.697 146.322 384.196L144.645 385.873H141.86C140.409 385.873 139.228 387.038 139.209 388.489V391.274L137.533 392.951C137.036 393.442 136.757 394.111 136.757 394.809C136.757 395.507 137.036 396.176 137.533 396.667L139.209 398.343V401.129C139.213 401.828 139.495 402.496 139.992 402.987C140.489 403.477 141.161 403.75 141.86 403.745H144.645L146.322 405.421C146.813 405.92 147.484 406.202 148.184 406.202C148.885 406.202 149.556 405.92 150.047 405.421L151.732 403.753H154.515C155.965 403.753 157.146 402.588 157.165 401.138V398.352L158.836 396.667C159.333 396.176 159.612 395.507 159.612 394.809C159.612 394.111 159.333 393.442 158.836 392.951Z" fill="#D7FFB8" style="fill:#D7FFB8;fill:color(display-p3 0.8422 1.0000 0.7208);fill-opacity:1;"/>
<path fill-rule="evenodd" clip-rule="evenodd" d="M207.638 250.601C207.638 250.601 240.065 250.601 240.733 250.601C241.402 250.601 242.07 250.768 242.702 251.102L356.031 311.959C362.926 315.603 360.98 328.374 353.569 328.374H127.9C120.489 328.374 118.544 315.603 125.438 311.959L207.638 250.601Z" fill="#FDB02A" style="fill:#FDB02A;fill:color(display-p3 0.9922 0.6902 0.1647);fill-opacity:1;"/>
<path d="M138.052 336.051C138.052 334.568 139.254 333.366 140.737 333.366H354.228C355.711 333.366 356.913 334.568 356.913 336.051V343.667C356.913 345.149 355.711 346.351 354.228 346.351H140.737C139.254 346.351 138.052 345.149 138.052 343.667V336.051Z" fill="#FDB02A" style="fill:#FDB02A;fill:color(display-p3 0.9922 0.6902 0.1647);fill-opacity:1;"/>
<path d="M98.9307 328.372H356.927V336.73H98.9307V328.372Z" fill="#F49000" style="fill:#F49000;fill:color(display-p3 0.9569 0.5647 0.0000);fill-opacity:1;"/>
<path d="M98.8994 336.063C98.8994 334.58 100.102 333.378 101.585 333.378H315.075C316.558 333.378 317.761 334.58 317.761 336.063V343.678C317.761 345.161 316.558 346.363 315.075 346.363H101.585C100.102 346.363 98.8994 345.161 98.8994 343.678V336.063Z" fill="#FBE56D" style="fill:#FBE56D;fill:color(display-p3 0.9843 0.8980 0.4275);fill-opacity:1;"/>
<path d="M98.8994 328.374H317.753V336.732H98.8994V328.374Z" fill="#FDB02A" style="fill:#FDB02A;fill:color(display-p3 0.9922 0.6902 0.1647);fill-opacity:1;"/>
<path d="M111.309 332.002C111.309 331.287 111.888 330.708 112.603 330.708H121.665C122.379 330.708 122.959 331.287 122.959 332.002V339.768C122.959 340.483 122.379 341.062 121.665 341.062H112.603C111.888 341.062 111.309 340.483 111.309 339.768V332.002Z" fill="#FDB02A" style="fill:#FDB02A;fill:color(display-p3 0.9922 0.6902 0.1647);fill-opacity:1;"/>
<path d="M137.173 332.002C137.173 331.287 137.752 330.708 138.467 330.708H147.529C148.244 330.708 148.823 331.287 148.823 332.002V339.768C148.823 340.483 148.244 341.062 147.529 341.062H138.467C137.752 341.062 137.173 340.483 137.173 339.768V332.002Z" fill="#FDB02A" style="fill:#FDB02A;fill:color(display-p3 0.9922 0.6902 0.1647);fill-opacity:1;"/>
<path d="M163.052 332.002C163.052 331.287 163.631 330.708 164.346 330.708H173.408C174.123 330.708 174.702 331.287 174.702 332.002V339.768C174.702 340.483 174.123 341.062 173.408 341.062H164.346C163.631 341.062 163.052 340.483 163.052 339.768V332.002Z" fill="#FDB02A" style="fill:#FDB02A;fill:color(display-p3 0.9922 0.6902 0.1647);fill-opacity:1;"/>
<path d="M188.916 332.002C188.916 331.287 189.496 330.708 190.211 330.708H199.272C199.987 330.708 200.566 331.287 200.566 332.002V339.768C200.566 340.483 199.987 341.062 199.272 341.062H190.211C189.496 341.062 188.916 340.483 188.916 339.768V332.002Z" fill="#FDB02A" style="fill:#FDB02A;fill:color(display-p3 0.9922 0.6902 0.1647);fill-opacity:1;"/>
<path d="M214.821 332.002C214.821 331.287 215.401 330.708 216.116 330.708H225.177C225.892 330.708 226.472 331.287 226.472 332.002V339.768C226.472 340.483 225.892 341.062 225.177 341.062H216.116C215.401 341.062 214.821 340.483 214.821 339.768V332.002Z" fill="#FDB02A" style="fill:#FDB02A;fill:color(display-p3 0.9922 0.6902 0.1647);fill-opacity:1;"/>
<path d="M240.701 332.002C240.701 331.287 241.281 330.708 241.996 330.708H251.057C251.772 330.708 252.352 331.287 252.352 332.002V339.768C252.352 340.483 251.772 341.062 251.057 341.062H241.996C241.281 341.062 240.701 340.483 240.701 339.768V332.002Z" fill="#FDB02A" style="fill:#FDB02A;fill:color(display-p3 0.9922 0.6902 0.1647);fill-opacity:1;"/>
<path d="M266.605 332.002C266.605 331.287 267.185 330.708 267.9 330.708H276.961C277.676 330.708 278.256 331.287 278.256 332.002V339.768C278.256 340.483 277.676 341.062 276.961 341.062H267.9C267.185 341.062 266.605 340.483 266.605 339.768V332.002Z" fill="#FDB02A" style="fill:#FDB02A;fill:color(display-p3 0.9922 0.6902 0.1647);fill-opacity:1;"/>
<path d="M292.46 332.002C292.46 331.287 293.04 330.708 293.754 330.708H302.816C303.531 330.708 304.11 331.287 304.11 332.002V339.768C304.11 340.483 303.531 341.062 302.816 341.062H293.754C293.04 341.062 292.46 340.483 292.46 339.768V332.002Z" fill="#FDB02A" style="fill:#FDB02A;fill:color(display-p3 0.9922 0.6902 0.1647);fill-opacity:1;"/>
<path fill-rule="evenodd" clip-rule="evenodd" d="M205.781 251.102C207.047 250.433 208.454 250.433 209.72 251.102L323.049 311.959C329.943 315.603 327.998 328.374 320.587 328.374H94.9174C87.5068 328.374 85.5612 315.603 92.4556 311.959L205.781 251.102Z" fill="#FBE56D" style="fill:#FBE56D;fill:color(display-p3 0.9843 0.8980 0.4275);fill-opacity:1;"/>
<path d="M295.918 314.726L209.277 268.646C208.299 268.129 207.21 268.129 206.232 268.646L162.913 291.686L119.594 314.726" stroke="#FFC600" style="stroke:#FFC600;stroke:color(display-p3 1.0000 0.7765 0.0000);stroke-opacity:1;" stroke-width="7.68987" stroke-linecap="round"/>
<path d="M82.5947 478.904C82.5947 477.422 83.797 476.22 85.2801 476.22H336.358C337.841 476.22 339.043 477.422 339.043 478.904V486.959C339.043 488.441 337.841 489.643 336.358 489.643H85.2801C83.797 489.643 83.7163 489.643 82.5947 489.643V478.904Z" fill="#FBE56D" style="fill:#FBE56D;fill:color(display-p3 0.9843 0.8980 0.4275);fill-opacity:1;"/>
<path d="M72.0117 490.675C72.0117 489.192 73.214 487.99 74.697 487.99H325.775C327.258 487.99 328.46 489.192 328.46 490.675V497.768C328.46 499.251 327.258 500.453 325.775 500.453H74.697C73.214 500.453 73.1333 500.453 72.0117 500.453V490.675Z" fill="#FBE56D" style="fill:#FBE56D;fill:color(display-p3 0.9843 0.8980 0.4275);fill-opacity:1;"/>
<path d="M93.1689 467.283C93.1689 465.801 94.3712 464.599 95.8543 464.599L336.797 464.599C338.28 464.599 339.482 465.801 339.482 467.283V475.338C339.482 476.82 338.28 478.022 336.797 478.022L95.8543 478.022C94.3712 478.022 94.2138 478.022 93.1689 478.022V467.283Z" fill="#FBE56D" style="fill:#FBE56D;fill:color(display-p3 0.9843 0.8980 0.4275);fill-opacity:1;"/>
<path d="M97.1387 475.094L312.911 475.094" stroke="#FFC600" style="stroke:#FFC600;stroke:color(display-p3 1.0000 0.7765 0.0000);stroke-opacity:1;" stroke-width="4.80616" stroke-linecap="round"/>
<path d="M86.8047 486.54H302.028" stroke="#FFC600" style="stroke:#FFC600;stroke:color(display-p3 1.0000 0.7765 0.0000);stroke-opacity:1;" stroke-width="4.80616" stroke-linecap="round"/>
<path d="M326.766 467.283C326.766 465.801 327.968 464.599 329.451 464.599H345.239C346.722 464.599 347.925 465.801 347.925 467.283V475.338C347.925 476.82 347.925 475.338 347.925 478.022H329.451C327.968 478.022 327.81 478.022 326.766 478.022V467.283Z" fill="#FDB02A" style="fill:#FDB02A;fill:color(display-p3 0.9922 0.6902 0.1647);fill-opacity:1;"/>
<path d="M316.177 478.904C316.177 477.421 317.379 476.219 318.862 476.219H345.212C346.695 476.219 347.897 476.219 347.897 476.219V486.958C347.897 488.44 347.897 486.958 347.897 489.642L318.862 489.642C317.379 489.642 317.222 489.642 316.177 489.642V478.904Z" fill="#FDB02A" style="fill:#FDB02A;fill:color(display-p3 0.9922 0.6902 0.1647);fill-opacity:1;"/>
<path d="M305.728 490.624C305.728 489.141 306.93 487.939 308.413 487.939L345.234 487.939C346.717 487.939 346.264 487.939 347.919 487.939V498.678C347.919 500.161 347.919 497.761 347.919 500.446L308.413 500.445C306.93 500.445 306.772 500.445 305.728 500.445V490.624Z" fill="#FDB02A" style="fill:#FDB02A;fill:color(display-p3 0.9922 0.6902 0.1647);fill-opacity:1;"/>
<path d="M187.679 299.836C187.679 288.787 196.637 279.831 207.688 279.831C218.739 279.831 227.697 288.787 227.697 299.836C227.697 310.885 218.739 319.842 207.688 319.842C196.637 319.842 187.679 310.885 187.679 299.836Z" fill="#FFC600" style="fill:#FFC600;fill:color(display-p3 1.0000 0.7765 0.0000);fill-opacity:1;"/>
<path d="M192.829 299.837C192.829 291.627 199.486 284.972 207.697 284.972C215.909 284.972 222.565 291.627 222.565 299.837C222.565 308.048 215.909 314.703 207.697 314.703C199.486 314.703 192.829 308.048 192.829 299.837Z" fill="white" style="fill:white;fill-opacity:1;"/>
<path d="M201.702 298.869L206.964 303.229L214.091 295.973" stroke="#FFC600" style="stroke:#FFC600;stroke:color(display-p3 1.0000 0.7765 0.0000);stroke-opacity:1;" stroke-width="4.80616" stroke-linecap="round" stroke-linejoin="round"/>
<rect x="453.825" y="449.33" width="107.103" height="51.1265" rx="19.2247" fill="#89E219" style="fill:#89E219;fill:color(display-p3 0.5373 0.8863 0.0980);fill-opacity:1;"/>
<rect x="463.706" y="411.175" width="78.2428" height="51.1263" rx="20.1859" fill="#89E219" style="fill:#89E219;fill:color(display-p3 0.5373 0.8863 0.0980);fill-opacity:1;"/>
<rect x="401.682" y="457.441" width="127.173" height="43.018" rx="21.509" fill="#58CC02" style="fill:#58CC02;fill:color(display-p3 0.3451 0.8000 0.0078);fill-opacity:1;"/>
<path d="M435.68 447.085C435.68 435.937 444.717 426.899 455.866 426.899H489.684C500.833 426.899 509.87 435.937 509.87 447.085V469.917H435.68V447.085Z" fill="#58CC02" style="fill:#58CC02;fill:color(display-p3 0.3451 0.8000 0.0078);fill-opacity:1;"/>
<path fill-rule="evenodd" clip-rule="evenodd" d="M542.092 258.272C539.519 252.433 532.7 249.785 526.86 252.357L510.444 259.587C504.604 262.159 501.955 268.977 504.528 274.816C507.101 280.654 513.92 283.303 519.76 280.731L536.176 273.501C542.016 270.929 544.664 264.111 542.092 258.272Z" fill="#F49000" style="fill:#F49000;fill:color(display-p3 0.9569 0.5647 0.0000);fill-opacity:1;"/>
<path d="M432.34 297.289L342.881 212.017C338.086 207.446 330.3 208.839 327.503 214.768C314.068 243.255 320.573 277.972 344.208 300.5C367.843 323.029 402.728 327.767 430.39 312.841C436.147 309.734 437.135 301.859 432.34 297.289Z" fill="#58CC02" style="fill:#58CC02;fill:color(display-p3 0.3451 0.8000 0.0078);fill-opacity:1;"/>
<path d="M530.718 243.062C533.847 222.269 512.746 202.075 489.565 203.633C472.729 206.466 470.934 206.759 461.749 207.048C439.716 207.742 441.301 176.409 404.407 184.849C377.457 191.013 365.162 214.558 356.094 244.617L349.262 280.234C341.92 329.023 369.784 374.035 417.948 381.279C466.112 388.524 513.212 354.638 520.554 305.849C527.896 257.06 530.718 243.062 530.718 243.062Z" fill="#58CC02" style="fill:#58CC02;fill:color(display-p3 0.3451 0.8000 0.0078);fill-opacity:1;"/>
<path d="M441.993 355.329L419.696 352.541C418.501 352.391 417.509 353.355 417.738 354.443C418.835 359.675 423.527 363.779 429.418 364.516C435.309 365.253 440.934 362.438 443.382 357.651C443.892 356.654 443.188 355.479 441.993 355.329Z" fill="#8EE000" style="fill:#8EE000;fill:color(display-p3 0.5569 0.8784 0.0000);fill-opacity:1;"/>
<path d="M402.348 350.646L381.083 343.386C379.943 342.997 378.777 343.739 378.779 344.852C378.791 350.197 382.55 355.169 388.169 357.087C393.787 359.005 399.866 357.392 403.237 353.202C403.938 352.329 403.488 351.036 402.348 350.646Z" fill="#8EE000" style="fill:#8EE000;fill:color(display-p3 0.5569 0.8784 0.0000);fill-opacity:1;"/>
<path d="M423.706 367.111L402.117 363.912C400.96 363.741 400.003 364.482 400.227 365.375C401.306 369.669 405.86 373.198 411.564 374.043C417.267 374.888 422.702 372.839 425.057 369.054C425.547 368.266 424.863 367.282 423.706 367.111Z" fill="#8EE000" style="fill:#8EE000;fill:color(display-p3 0.5569 0.8784 0.0000);fill-opacity:1;"/>
<path d="M435.492 293.868L565.395 264.313C572.358 262.729 578.796 268.315 578.11 275.345C574.812 309.121 549.616 337.66 515.296 345.468C480.976 353.276 446.068 338.412 428.707 309.336C425.093 303.284 428.529 295.452 435.492 293.868Z" fill="#58CC02" style="fill:#58CC02;fill:color(display-p3 0.3451 0.8000 0.0078);fill-opacity:1;"/>
<path fill-rule="evenodd" clip-rule="evenodd" d="M416.468 381.086C432.5 379.618 452.46 376.009 470.348 365.002C481.863 357.916 490.092 347.142 496.078 334.889C496.606 333.81 497.687 333.12 498.887 333.066C519.903 332.109 560.768 316.196 576.951 282.54C571.033 313.119 547.038 338.228 515.182 345.476C510.902 346.45 506.613 347.071 502.35 347.356C482.742 372.165 450.52 386.218 417.808 381.298C417.359 381.23 416.913 381.16 416.468 381.086ZM525.456 273.228C521.464 274.128 518.151 274.806 515.559 275.29C513.535 275.668 511.775 273.948 512.045 271.907C512.301 269.977 512.554 268.06 512.796 266.223C513.14 263.621 513.462 261.18 513.74 259.09C517.284 232.511 515.969 212.187 493.244 203.589C494.19 203.621 495.131 203.689 496.064 203.79L501.712 204.827C519.469 209.446 533.139 226.063 530.578 243.081C530.578 243.081 529.088 250.471 525.456 273.228Z" fill="#00BC35" style="fill:#00BC35;fill:color(display-p3 0.0000 0.7373 0.2078);fill-opacity:1;"/>
<path fill-rule="evenodd" clip-rule="evenodd" d="M435.179 257.332C423.851 265.543 406.789 262.679 397.663 251.035C388.538 239.391 389.665 308.582 389.694 308.41C389.708 308.327 395.473 309.271 406.988 311.239C410.074 311.767 415.634 312.725 423.668 314.112C438.893 270.785 442.73 251.858 435.179 257.332Z" fill="#89E219" style="fill:#89E219;fill:color(display-p3 0.5373 0.8863 0.0980);fill-opacity:1;"/>
<path d="M466.678 236.528C466.678 236.528 454.764 244.847 448.495 249.216C442.289 253.54 431.933 259.9 431.933 259.9C430.321 261.197 430.444 263.679 432.177 264.802C440.504 270.198 451.561 269.655 459.508 263.262C467.456 256.87 474.98 247.042 471.438 237.798C470.701 235.874 468.29 235.231 466.678 236.528Z" fill="#89E219" style="fill:#89E219;fill:color(display-p3 0.5373 0.8863 0.0980);fill-opacity:1;"/>
<path d="M480.057 244.177L449.807 261.251C448.189 262.334 448.274 266.977 449.807 268.175C457.175 273.934 467.554 272.861 475.53 267.526C483.505 262.191 487.277 254.566 484.71 245.596C484.176 243.729 482.012 243.045 480.057 244.177Z" fill="#89E219" style="fill:#89E219;fill:color(display-p3 0.5373 0.8863 0.0980);fill-opacity:1;"/>
<path d="M492.683 291.286C495.961 271.767 487.927 256.402 468.404 253.125C448.88 249.848 423.893 261.164 420.615 280.683L417.691 298.099C414.413 317.618 427.068 336.56 446.592 339.837C466.115 343.114 484.261 333.538 487.539 314.019L492.683 291.286Z" fill="#89E219" style="fill:#89E219;fill:color(display-p3 0.5373 0.8863 0.0980);fill-opacity:1;"/>
<path fill-rule="evenodd" clip-rule="evenodd" d="M349.291 285.936C348.302 303.285 358.978 318.153 372.748 320.394C387.885 322.858 404.025 315.875 407.007 296.324L404.559 272.735C407.541 253.185 397.453 234.603 382.316 232.14C370.519 230.22 361.413 235.319 356.082 248.289C351.921 260.336 350.912 273.346 349.291 285.936Z" fill="#89E219" style="fill:#89E219;fill:color(display-p3 0.5373 0.8863 0.0980);fill-opacity:1;"/>
<path d="M397.388 220.868C397.126 223.494 398.155 258.851 415.392 260.742L405.419 270.172L384.425 240.684L376.021 237.617C373.433 238.707 368.795 239.173 369.096 234.735C369.681 226.112 374.415 220.537 377.433 220.868C379.005 221.041 380.001 222.066 380.721 229.781C382.985 222.889 387.562 219.262 390.392 217.643C393.941 215.614 397.919 215.539 397.388 220.868Z" fill="#89E219" style="fill:#89E219;fill:color(display-p3 0.5373 0.8863 0.0980);fill-opacity:1;"/>
<path d="M415.128 261.253C437.217 262.656 447.463 246.422 463.378 239.138L453.023 253.161L435.056 267.36L419.357 275.496C414.087 270.22 405.812 260.661 415.128 261.253Z" fill="#89E219" style="fill:#89E219;fill:color(display-p3 0.5373 0.8863 0.0980);fill-opacity:1;"/>
<path d="M480.286 292.54C482.567 278.961 473.405 266.105 459.824 263.826V263.826C446.243 261.546 433.385 270.706 431.105 284.285L428.783 298.114C426.502 311.693 435.664 324.549 449.245 326.828V326.828C462.826 329.108 475.684 319.948 477.964 306.369L480.286 292.54Z" fill="white" style="fill:white;fill-opacity:1;"/>
<path d="M397.614 270.533C399.825 256.954 393.43 244.529 383.331 242.781C373.232 241.033 363.253 250.624 361.042 264.203L358.789 278.033C356.578 291.611 362.973 304.036 373.072 305.784C383.171 307.532 393.15 297.941 395.361 284.363L397.614 270.533Z" fill="white" style="fill:white;fill-opacity:1;"/>
<path d="M377.672 270.266C381.559 270.939 385.38 267.364 386.208 262.281C386.479 260.619 386.396 259.002 386.025 257.554C386.93 257.346 387.863 257.311 388.8 257.473C393.659 258.314 396.759 264.146 395.724 270.499L393.726 282.77C392.691 289.124 387.914 293.593 383.055 292.752C378.197 291.911 375.097 286.079 376.131 279.725L377.672 270.266Z" fill="#4B4B4B" style="fill:#4B4B4B;fill:color(display-p3 0.2941 0.2941 0.2941);fill-opacity:1;"/>
<path fill-rule="evenodd" clip-rule="evenodd" d="M439.756 287.072C444.848 287.926 449.683 284.414 450.554 279.227C450.839 277.531 450.665 275.866 450.123 274.363C451.293 274.188 452.509 274.191 453.736 274.397C460.102 275.465 464.38 281.588 463.291 288.072L461.189 300.594C460.1 307.078 454.056 311.468 447.69 310.4C441.324 309.331 437.046 303.209 438.135 296.725L439.756 287.072Z" fill="#4B4B4B" style="fill:#4B4B4B;fill:color(display-p3 0.2941 0.2941 0.2941);fill-opacity:1;"/>
<path d="M420.216 313.564C421.332 306.916 415.348 312.881 408.699 311.765C402.05 310.649 395.734 302.494 394.617 309.142L393.53 326.229C393.53 333.774 397.226 339.165 403.875 340.281C410.524 341.397 417.001 337.111 418.117 330.464L420.216 313.564Z" fill="#F49000" style="fill:#F49000;fill:color(display-p3 0.9569 0.5647 0.0000);fill-opacity:1;"/>
<path d="M416.025 311.562C413.147 311.322 402.559 311.359 398.582 311.884L397.437 324.551C396.604 329.511 399.687 334.006 404.073 334.743C408.459 335.479 412.314 332.189 413.147 327.229L416.025 311.562Z" fill="#DC6A01" style="fill:#DC6A01;fill:color(display-p3 0.8627 0.4157 0.0039);fill-opacity:1;"/>
<path fill-rule="evenodd" clip-rule="evenodd" d="M404.964 334.849C408.963 335.021 412.353 331.853 413.128 327.239L414.456 320.011C414.104 319.741 413.722 319.505 413.31 319.309C409.577 317.527 404.846 319.653 402.743 324.057C400.784 328.161 401.797 332.794 404.964 334.849Z" fill="#FFB8D1" style="fill:#FFB8D1;fill:color(display-p3 1.0000 0.7216 0.8196);fill-opacity:1;"/>
<path d="M388.229 306.553C388.03 307.018 388.228 308.089 388.828 308.764C389.428 309.439 396.093 315.503 398.685 316.521C401.277 317.539 419.139 316.018 421.275 315.043C422.361 314.547 422.909 313.904 422.858 313.303C422.181 305.346 416.108 298.606 407.868 297.223C399.544 295.825 391.405 299.122 388.229 306.553Z" fill="#FFC200" style="fill:#FFC200;fill:color(display-p3 1.0000 0.7608 0.0000);fill-opacity:1;"/>
<path fill-rule="evenodd" clip-rule="evenodd" d="M406.098 303.359C406.76 303.468 407.368 303.625 407.844 303.786C408.044 303.853 408.207 303.917 408.333 303.972C408.395 303.999 408.443 304.022 408.479 304.04C408.497 304.049 408.51 304.056 408.519 304.061C408.529 304.066 408.533 304.069 408.533 304.068C409.803 304.839 411.481 304.527 412.28 303.37C413.079 302.213 412.697 300.65 411.426 299.879C410.883 299.55 410.225 299.277 409.585 299.061C408.8 298.796 407.879 298.562 406.907 298.403C406.153 298.279 405.342 298.196 404.517 298.185C403.856 298.176 403.167 298.212 402.48 298.319C401.006 298.547 400.043 299.843 400.328 301.214C400.613 302.586 402.039 303.513 403.513 303.285C403.827 303.236 404.186 303.213 404.58 303.219C405.071 303.225 405.588 303.276 406.098 303.359Z" fill="#FFDE00" style="fill:#FFDE00;fill:color(display-p3 1.0000 0.8696 0.0000);fill-opacity:1;"/>
<path fill-rule="evenodd" clip-rule="evenodd" d="M444.778 101.368C437.885 124.257 421.101 150.899 384.581 184.991C383.511 185.99 381.824 185.934 380.828 184.861V184.861C379.873 183.831 379.865 182.257 380.83 181.237C406.535 154.038 458.394 91.9884 436.269 53.4601C435.525 52.1644 435.811 50.4801 437.024 49.6077V49.6077C438.279 48.7052 440.036 48.9994 440.838 50.3209C447.892 61.9445 451.352 79.5372 444.778 101.368Z" fill="white" style="fill:white;fill-opacity:1;"/>
<path fill-rule="evenodd" clip-rule="evenodd" d="M570.504 254.157C569.662 255.315 568.05 255.566 566.873 254.753V254.753C565.683 253.931 565.361 252.316 566.118 251.084C578.359 231.191 586.887 205.988 581.329 183.011C580.997 181.638 581.72 180.211 583.048 179.732V179.732C584.426 179.235 585.953 179.934 586.407 181.326C594.219 205.286 585.584 233.404 570.504 254.157Z" fill="white" style="fill:white;fill-opacity:1;"/>
<path fill-rule="evenodd" clip-rule="evenodd" d="M405.736 15.1582C406.53 13.9786 406.221 12.3746 405.002 11.6432C380.977 -2.76711 321.208 -12.3575 248.165 65.7002C247.183 66.7494 247.193 68.4198 248.214 69.4304V69.4304C249.235 70.4406 250.901 70.4334 251.954 69.4564C327.086 -0.267506 380.781 3.6722 402.118 15.9384C403.351 16.647 404.942 16.3376 405.736 15.1582V15.1582Z" fill="#D7FFB8" style="fill:#D7FFB8;fill:color(display-p3 0.8422 1.0000 0.7208);fill-opacity:1;"/>
</g>
<defs>
<clipPath id="clip0_21476_54170">
<rect width="600" height="500" fill="white" style="fill:white;fill-opacity:1;"/>
</clipPath>
</defs>
</svg>
