<svg width="775" height="87" viewBox="0 0 775 87" fill="none" xmlns="http://www.w3.org/2000/svg">
<path d="M0 1H775V87H0V1Z" fill="white"/>
<path d="M0 1V2H775V1V0H0V1Z" fill="#E5E5E5"/>
<path d="M27.125 46L24 28.32L36.5 20L49 28.32L45.3542 46H27.125Z" fill="#FFC800"/>
<path d="M34.5 39.5H39" stroke="#CD7900" stroke-width="2" stroke-linecap="round" stroke-linejoin="round"/>
<path d="M22 30L36.5 20L51 30" stroke="#FF4B4B" stroke-width="5" stroke-linecap="round" stroke-linejoin="round"/>
<circle cx="36.5" cy="32.5" r="4" fill="#AA572A"/>
<path d="M388 35.5L391.897 43.75H384.103L388 35.5Z" fill="#CD7900"/>
<path d="M383 44H392.5" stroke="#FF9600" stroke-width="3" stroke-linecap="round"/>
<path d="M380 35.8183C384 39.8183 387 39.8183 388 39.8183C389 39.8183 392 39.8183 396 35.8183C401 30.8183 401 28.3183 400 27.3183C399.2 26.5183 397.667 26.3183 397 26.3183V22.3183C397 20.3183 395 18.8183 393 19.8183L393 19.8183C391 20.8183 390 21.3184 388 21.3184C386 21.3184 385 20.8183 383 19.8183C381 18.8183 379 20.3183 379 22.3183V26.3183C378.333 26.3183 376.8 26.5183 376 27.3183C375 28.3183 375 30.8183 380 35.8183Z" fill="#FF9600"/>
<mask id="mask0_26_6107" style="mask-type:alpha" maskUnits="userSpaceOnUse" x="375" y="19" width="26" height="21">
<path d="M380 35.8183C384 39.8183 387 39.8183 388 39.8183C389 39.8183 392 39.8183 396 35.8183C401 30.8183 401 28.3183 400 27.3183C399.2 26.5183 397.667 26.3183 397 26.3183V22.3183C397 20.3183 395 18.8183 393 19.8183L393 19.8183C391 20.8183 390 21.3184 388 21.3184C386 21.3184 385 20.8183 383 19.8183C381 18.8183 379 20.3183 379 22.3183V26.3183C378.333 26.3183 376.8 26.5183 376 27.3183C375 28.3183 375 30.8183 380 35.8183Z" fill="#FFC800"/>
</mask>
<g mask="url(#mask0_26_6107)">
<rect x="365.824" y="30.4878" width="41" height="15" transform="rotate(-42.6671 365.824 30.4878)" fill="#FFC800"/>
</g>
<path d="M380 35.8183C384 39.8183 387 39.8183 388 39.8183C389 39.8183 392 39.8183 396 35.8183C401 30.8183 401 28.3183 400 27.3183C399.2 26.5183 397.667 26.3183 397 26.3183V22.3183C397 20.3183 395 18.8183 393 19.8183L393 19.8183C391 20.8183 390 21.3184 388 21.3184C386 21.3184 385 20.8183 383 19.8183C381 18.8183 379 20.3183 379 22.3183V26.3183C378.333 26.3183 376.8 26.5183 376 27.3183C375 28.3183 375 30.8183 380 35.8183Z" stroke="#FF9600" stroke-width="2" stroke-linecap="round"/>
<rect x="725" y="18.5" width="29" height="29" rx="14.5" fill="#CE82FF"/>
<circle cx="732.5" cy="33" r="1.5" fill="white"/>
<circle cx="739.25" cy="33" r="1.5" fill="white"/>
<circle cx="746" cy="33" r="1.5" fill="white"/>
</svg>
