<svg width="40" height="40" viewBox="0 0 40 40" fill="none" xmlns="http://www.w3.org/2000/svg">
<path d="M20.4999 22.5L24.3971 30.75H16.6028L20.4999 22.5Z" fill="#CD7900"/>
<path d="M15.4999 31H24.9999" stroke="#FF9600" stroke-width="3" stroke-linecap="round"/>
<path d="M12.5 22.8183C16.5 26.8183 19.5001 26.8183 20.5 26.8183C21.4999 26.8183 24.4999 26.8183 28.4999 22.8183C33.4999 17.8183 33.4999 15.3183 32.4999 14.3183C31.6999 13.5183 30.1667 13.3183 29.5 13.3183V9.3183C29.5 7.3183 27.5 5.8183 25.5 6.8183L25.5 6.81834C23.5 7.81831 22.4999 8.31836 20.5 8.31836C18.5001 8.31836 17.4999 7.8183 15.4999 6.8183C13.4999 5.8183 11.4999 7.3183 11.4999 9.3183V13.3183C10.8333 13.3183 9.30002 13.5183 8.50002 14.3183C7.50002 15.3183 7.50002 17.8183 12.5 22.8183Z" fill="#FF9600"/>
<mask id="mask0_2003_442" style="mask-type:alpha" maskUnits="userSpaceOnUse" x="7" y="6" width="27" height="21">
<path d="M12.5 22.8183C16.5 26.8183 19.5001 26.8183 20.5 26.8183C21.4999 26.8183 24.4999 26.8183 28.4999 22.8183C33.4999 17.8183 33.4999 15.3183 32.4999 14.3183C31.6999 13.5183 30.1667 13.3183 29.5 13.3183V9.3183C29.5 7.3183 27.5 5.8183 25.5 6.8183L25.5 6.81834C23.5 7.81831 22.4999 8.31836 20.5 8.31836C18.5001 8.31836 17.4999 7.8183 15.4999 6.8183C13.4999 5.8183 11.4999 7.3183 11.4999 9.3183V13.3183C10.8333 13.3183 9.30002 13.5183 8.50002 14.3183C7.50002 15.3183 7.50002 17.8183 12.5 22.8183Z" fill="#FFC800"/>
</mask>
<g mask="url(#mask0_2003_442)">
<rect x="-1.67584" y="17.4878" width="41" height="15" transform="rotate(-42.6671 -1.67584 17.4878)" fill="#FFC800"/>
</g>
<path d="M12.5 22.8183C16.5 26.8183 19.5001 26.8183 20.5 26.8183C21.4999 26.8183 24.4999 26.8183 28.4999 22.8183C33.4999 17.8183 33.4999 15.3183 32.4999 14.3183C31.6999 13.5183 30.1667 13.3183 29.5 13.3183V9.3183C29.5 7.3183 27.5 5.8183 25.5 6.8183L25.5 6.81834C23.5 7.81831 22.4999 8.31836 20.5 8.31836C18.5001 8.31836 17.4999 7.8183 15.4999 6.8183C13.4999 5.8183 11.4999 7.3183 11.4999 9.3183V13.3183C10.8333 13.3183 9.30002 13.5183 8.50002 14.3183C7.50002 15.3183 7.50002 17.8183 12.5 22.8183Z" stroke="#FF9600" stroke-width="2" stroke-linecap="round"/>
</svg>
