<svg width="430" height="54" viewBox="0 0 430 54" fill="none" xmlns="http://www.w3.org/2000/svg">
<rect width="430" height="54" fill="white"/>
<path d="M28.5 30.5225V21.0225C28.5 19.0225 30 19.0225 31 19.5225L33 20.5225C33.8333 19.3558 35.7 16.8225 36.5 16.0225C37.5 15.0225 38.5 15.5225 39.5 16.5225C40.5 17.5225 43.5 21.5225 45 23.5225C46.5 25.5225 47 27.5225 47 30.5225C47 33.5225 43.5 38.5225 37.5 38.5225C31.5 38.5225 28.5 33.0225 28.5 30.5225Z" fill="#FF9600"/>
<path d="M34.5 29.0225C35.3 27.8225 36.5 26.1892 37 25.5225C37.1666 25.1892 37.7 24.7225 38.5 25.5225C39.5 26.5225 40.5 28.5225 41 29.0225C41.5 29.5225 42 31.5225 41 33.0225C40 34.5225 38.5 35.0225 37.5 35.0225C36.5 35.0225 35 34.0225 34.5 33.0225C34 32.0225 33.5 30.5225 34.5 29.0225Z" fill="#FFC800"/>
<path d="M213 31.4119V22.1439C213 21.4352 213.375 20.7794 213.986 20.42L220.486 16.5965C221.112 16.2283 221.888 16.2283 222.514 16.5965L229.014 20.42C229.625 20.7794 230 21.4352 230 22.1439V31.4119C230 32.0904 229.656 32.7225 229.087 33.0911L222.587 37.297C221.925 37.7248 221.075 37.7248 220.413 37.297L213.913 33.0911C213.344 32.7225 213 32.0904 213 31.4119Z" fill="#1CB0F6"/>
<path d="M219.933 18.577L215.155 21.8623C214.475 22.33 214.622 23.374 215.405 23.635L217.576 24.3586C217.846 24.4486 218.141 24.4193 218.388 24.2782L220.996 22.7879C221.308 22.6099 221.5 22.2785 221.5 21.9197V19.401C221.5 18.5959 220.597 18.1208 219.933 18.577Z" fill="#DDF4FF"/>
<path d="M391.495 19.8753C394.295 15.8753 399.328 18.2086 401.495 19.8753C403.495 17.8753 407.995 15.3753 411.495 18.8753C414.995 22.3753 411.495 27.3753 409.995 28.8753C408.899 29.9709 404.664 33.9286 402.159 36.2578C401.782 36.6087 401.201 36.614 400.816 36.2717L392.495 28.8753C390.995 27.542 388.695 23.8753 391.495 19.8753Z" fill="#FF4B4B"/>
<circle cx="396.495" cy="24.3752" r="3" fill="#FFB2B2"/>
</svg>
