<svg version="1.1" id="Layer_1" xmlns="http://www.w3.org/2000/svg" xmlns:xlink="http://www.w3.org/1999/xlink" x="0px" y="0px"
	 width="100%" viewBox="0 0 540 540" enable-background="new 0 0 540 540" xml:space="preserve">
<path fill="#032D41" opacity="1.000000" stroke="none" 
	d="
M532.327637,540.699463 
	C512.312439,541.000000 492.624878,541.000000 472.468658,541.000000 
	C468.891663,538.800659 469.510345,535.479248 469.509796,532.411499 
	C469.502045,488.421753 469.464905,444.432007 469.525665,400.442322 
	C469.537689,391.733856 468.683502,383.194885 466.569611,374.716675 
	C459.987122,348.315918 438.833984,329.840118 410.390167,326.599182 
	C398.140686,325.203400 386.701813,327.733093 375.378479,332.523163 
	C351.754181,342.516937 327.842255,351.839996 303.203308,359.084717 
	C282.917542,365.049469 262.443481,365.215027 242.041031,359.620483 
	C218.392334,353.135742 195.461395,344.582947 172.942200,334.920502 
	C166.652725,332.221863 160.275085,329.768219 153.712219,327.878693 
	C117.323875,317.402039 77.621918,343.559235 72.693207,381.150726 
	C71.868752,387.438873 71.462700,393.730499 71.471008,400.079163 
	C71.528763,444.235474 71.507912,488.391846 71.470924,532.548218 
	C71.468658,535.252380 72.229919,538.256714 69.305405,540.695496 
	C51.979103,541.000000 34.958210,541.000000 17.468658,541.000000 
	C15.954927,539.939514 14.499842,540.011780 13.217652,539.779297 
	C5.921425,538.456055 2.032307,533.992310 2.125792,526.693237 
	C3.267004,437.590179 2.348933,348.483429 2.593121,259.378784 
	C2.634370,244.326920 2.819245,229.274185 2.650570,214.221024 
	C2.608989,210.510162 3.736075,208.332077 8.325131,207.919052 
	C17.862255,207.060623 27.367996,207.538666 36.879440,207.535629 
	C191.345322,207.486435 345.811218,207.494904 500.277100,207.510864 
	C509.682617,207.511841 519.089539,207.178406 528.496704,207.734085 
	C530.593262,207.857941 532.637817,206.790543 535.278442,206.427231 
	C538.127869,206.170944 538.967102,207.346893 538.804199,210.022247 
	C538.948242,212.695251 538.643616,214.784714 537.255005,217.090088 
	C535.146667,219.147812 535.546265,221.402878 535.541443,223.522079 
	C535.452820,262.168823 535.509094,300.815613 535.503052,339.462372 
	C535.493835,398.098907 535.484802,456.735413 535.527039,515.371948 
	C535.529907,519.298279 535.214783,523.230408 536.360229,527.147461 
	C536.872192,528.898132 537.258301,531.161621 534.653687,532.463989 
	C533.901428,532.840088 532.898743,534.624023 534.246887,536.465820 
	C535.217102,538.749146 534.006897,539.609558 532.327637,540.699463 
z"/>
<path fill="#032D41" opacity="1.000000" stroke="none" 
	d="
M60.758041,1.242248 
	C123.020897,1.000000 185.041794,1.000000 247.531342,1.000000 
	C251.625870,4.605598 249.996307,9.277830 249.988297,13.327318 
	C249.905869,55.047398 250.112762,96.767548 249.980530,138.487335 
	C249.957733,145.676910 250.552368,152.896088 248.886230,160.465149 
	C246.470810,162.998367 243.682129,162.363800 241.078598,162.491898 
	C232.786362,162.899918 224.410217,161.539352 215.732071,163.803909 
	C212.480835,164.648422 209.663147,162.241348 206.409622,164.068878 
	C204.641495,164.085037 203.355453,164.002090 201.591812,164.156097 
	C200.161148,164.317169 199.211563,164.294647 197.804169,164.018158 
	C191.170074,162.090134 184.986771,161.956451 178.335632,163.893555 
	C175.212509,164.541611 172.520432,161.832672 169.386169,164.092682 
	C167.630859,164.076675 166.354141,163.985229 164.595154,164.079605 
	C163.478378,164.157516 162.843094,164.136032 161.743073,163.958221 
	C154.782547,162.134430 148.283005,161.887115 141.320679,163.897202 
	C138.198654,164.450500 135.512573,161.987747 132.378967,164.104370 
	C130.947128,164.160919 129.990189,164.108475 128.556000,164.207367 
	C127.121483,164.336792 126.170372,164.303085 124.763397,164.013367 
	C117.813881,162.040131 111.315353,161.935562 104.350876,163.891937 
	C101.222160,164.446381 98.529808,161.989746 95.387955,164.103821 
	C93.954994,164.161972 92.997375,164.109116 91.562454,164.207428 
	C90.128098,164.336990 89.177078,164.304001 87.770302,164.015289 
	C81.138306,162.081085 74.958412,161.960220 68.310318,163.897171 
	C65.171448,164.503036 62.474106,161.826508 59.324333,164.076355 
	C57.578457,164.071716 56.307899,164.001984 54.562447,164.155411 
	C53.136883,164.317581 52.189972,164.292816 50.784481,164.013428 
	C44.110355,162.092041 37.893944,161.936783 31.219240,163.935211 
	C28.423639,164.316727 26.075357,164.201111 23.249624,164.030243 
	C18.295948,162.098740 13.421585,163.035583 8.510564,161.598053 
	C7.826932,160.630417 7.516884,160.028687 7.178459,158.899994 
	C6.903254,157.381241 7.692092,156.390335 6.770260,155.286896 
	C1.479253,148.953445 2.063554,141.034332 2.218651,133.760376 
	C3.128147,91.105522 2.456812,48.455196 2.517610,5.803805 
	C2.519486,4.487882 2.342682,2.923694 3.654337,1.348511 
	C20.687561,1.000000 37.375122,1.000000 54.531342,1.000000 
	C56.725502,2.331950 57.144382,3.707414 55.445892,5.469719 
	C53.377525,7.615791 51.171844,9.642765 49.295441,11.961975 
	C46.430557,15.502944 46.447830,18.208815 49.203651,21.825909 
	C55.074398,29.531446 60.208832,30.030722 66.322891,23.490587 
	C70.564941,18.952919 70.643982,15.585299 66.609077,10.850000 
	C64.988205,8.947780 63.053932,7.387656 61.121101,5.821865 
	C59.596420,4.586715 58.434288,3.247423 60.758041,1.242248 
z"/>
<path fill="#032D41" opacity="1.000000" stroke="none" 
	d="
M404.765106,1.235985 
	C448.020905,1.000000 491.041779,1.000000 534.531372,1.000000 
	C536.091614,2.065262 537.493591,3.166124 537.417847,4.723040 
	C537.119019,10.865966 539.136108,16.908432 538.006775,23.091717 
	C537.348450,26.696184 537.440125,30.390850 537.514099,34.050766 
	C538.112427,63.644688 537.157898,93.237938 537.495728,122.831612 
	C537.545105,127.160149 537.514160,131.493790 538.248047,135.775116 
	C539.740234,144.479904 537.591675,152.598251 534.157654,161.009293 
	C532.005615,162.716385 529.797668,162.481964 527.663208,162.482529 
	C453.810181,162.501663 379.957184,162.509155 306.104156,162.488373 
	C304.608704,162.487946 303.108643,162.508804 301.170441,162.094299 
	C298.165405,158.407974 296.969482,154.547012 297.813049,150.123413 
	C298.998016,143.909836 296.473999,137.963272 296.405762,131.783539 
	C296.277313,120.152390 298.025574,108.641747 297.862762,96.973518 
	C297.760406,89.634644 296.489777,82.462868 296.424469,75.142136 
	C296.329620,64.507729 297.996063,54.015671 297.793823,43.342697 
	C297.592499,32.716202 295.688507,22.178740 296.478607,11.525620 
	C296.759277,7.741316 296.681976,3.953488 300.689026,1.283391 
	C327.354218,1.000000 353.708466,1.000000 380.531342,1.000000 
	C383.595123,2.919452 386.497650,4.350079 389.047729,6.382205 
	C391.848633,8.614176 394.992920,8.263353 397.655334,5.971870 
	C399.769440,4.152369 402.145996,2.828580 404.765106,1.235985 
z"/>
<path fill="#254F63" opacity="1.000000" stroke="none" 
	d="
M69.468636,541.000000 
	C69.057846,492.001770 69.135078,443.003540 69.162003,394.005310 
	C69.170364,378.800873 72.824280,364.868103 81.398918,352.006042 
	C96.891891,328.766388 130.561478,316.700348 156.971848,326.168091 
	C175.923950,332.962097 194.463440,340.903473 213.391891,347.768066 
	C232.032150,354.528137 250.859283,360.919006 271.046783,361.159515 
	C286.453308,361.343079 300.946960,356.982361 315.450470,352.387115 
	C337.873169,345.282654 359.304382,335.626068 381.287231,327.406738 
	C416.008270,314.424683 459.689026,333.857697 469.349121,374.287994 
	C471.070862,381.493958 471.798096,388.707977 471.802399,396.067596 
	C471.830566,444.066437 471.890900,492.065247 471.970367,540.532043 
	C463.979095,541.000000 455.958191,541.000000 447.468628,541.000000 
	C443.657288,537.865967 445.302795,534.007751 446.076538,530.711426 
	C447.727264,523.679138 448.558044,516.640625 448.516754,509.442596 
	C448.452789,498.281555 448.405334,487.118896 448.522217,475.958740 
	C448.692993,459.647095 443.839691,444.841187 435.582886,430.957611 
	C432.281799,425.406952 427.901794,420.863708 422.783325,417.105652 
	C417.563416,413.273254 415.614105,408.087677 415.536102,401.984009 
	C415.453552,395.523621 413.305084,389.527039 411.383270,383.539307 
	C409.376923,377.288147 404.831116,376.198669 399.862000,380.467194 
	C396.075043,383.720215 392.561493,387.295166 389.390594,391.166840 
	C388.022552,392.837280 386.422333,393.646545 384.323944,393.100342 
	C381.922577,392.475311 381.571289,390.483917 381.555725,388.431488 
	C381.500519,381.142487 379.630524,374.232819 376.790131,367.632111 
	C373.626404,360.280029 369.575378,359.634613 363.932220,365.124420 
	C356.264343,372.584015 350.069153,381.305023 343.090027,389.354095 
	C333.266815,400.683441 323.339874,411.994019 312.005035,421.776642 
	C301.505829,430.838074 289.107086,435.946411 274.808014,436.662872 
	C261.762848,437.316559 249.747589,434.333435 238.117706,429.089966 
	C234.168152,427.309296 230.999222,424.137024 228.015549,421.033051 
	C213.250641,405.672943 198.353531,390.428955 184.566544,374.163574 
	C181.762360,370.855286 178.759232,367.735016 175.806412,364.574921 
	C171.976990,360.476685 168.407471,361.049347 166.081100,366.105408 
	C162.940735,372.930511 160.156418,379.877808 160.450546,387.650238 
	C160.535019,389.882629 161.034149,392.650055 158.288651,393.767517 
	C155.316467,394.977264 153.121552,392.870575 151.436157,390.973022 
	C148.681229,387.871338 146.429825,384.336121 143.304337,381.525787 
	C137.056244,375.907623 133.126434,376.671600 129.360184,384.115112 
	C127.106331,388.569611 126.176788,393.266876 126.548164,398.150177 
	C127.108604,405.519348 124.648552,411.316071 119.032463,416.223907 
	C114.288368,420.369690 110.204308,425.190643 106.392441,430.317078 
	C97.175705,442.712341 93.250053,456.820923 92.645515,471.836456 
	C92.049507,486.640259 92.490372,501.484009 92.521782,516.310303 
	C92.535614,522.837646 94.889793,529.075134 94.857071,535.616272 
	C94.848160,537.398254 95.350815,539.204407 93.273300,540.726562 
	C85.312424,541.000000 77.624847,541.000000 69.468636,541.000000 
z"/>
<path fill="#131E26" opacity="1.000000" stroke="none" 
	d="
M300.689209,159.679749 
	C378.016205,159.989700 455.030792,159.985107 532.512695,159.970184 
	C534.492126,158.398727 535.360840,156.513016 536.260193,154.540115 
	C536.828491,153.293564 537.449646,150.131317 540.667725,152.670914 
	C541.000000,169.687561 541.000000,186.375122 541.000000,203.531342 
	C540.156555,204.625946 539.742249,205.849411 537.935059,205.825867 
	C534.744080,204.507523 532.105347,205.084763 529.219971,205.252457 
	C521.998596,205.672134 514.653381,206.287048 507.438019,204.795532 
	C504.220276,204.130356 500.831207,204.025223 497.800598,204.548798 
	C486.694214,206.467590 475.633087,205.331512 464.595703,204.608749 
	C459.053802,204.245850 453.777618,205.648682 448.301178,205.642365 
	C440.015167,205.632828 431.766235,203.545334 423.591339,204.530090 
	C416.184265,205.422379 408.797546,205.863983 401.455811,205.346375 
	C395.502472,204.926651 389.556335,203.935654 383.642639,204.845901 
	C376.564331,205.935379 369.473938,205.797745 362.462189,205.161697 
	C358.148285,204.770386 353.875397,204.131790 349.610565,204.807755 
	C337.688416,206.697327 325.796295,204.090607 313.936737,204.741562 
	C306.464661,205.151688 299.004120,205.619705 291.535248,205.448273 
	C286.022247,205.321747 280.618652,203.971237 274.978180,204.911880 
	C263.217712,206.873154 251.405197,203.953903 239.645340,204.738449 
	C232.930344,205.186432 226.231720,205.662704 219.519806,205.454880 
	C213.947296,205.282318 208.427780,204.068649 202.810471,204.426514 
	C199.118042,204.661743 195.510635,205.456390 191.775391,205.609268 
	C183.471634,205.949158 175.253967,203.767181 167.043701,204.613785 
	C159.853104,205.355240 152.693436,205.574005 145.510574,205.463120 
	C139.594849,205.371811 133.771973,203.778687 127.752991,204.842072 
	C116.249847,206.874359 104.702934,204.134476 93.202156,204.800690 
	C86.141106,205.209732 79.094650,205.632645 72.032356,205.460388 
	C66.554359,205.326767 61.134014,203.933197 55.614590,204.524704 
	C51.604065,204.954498 47.620926,205.448120 43.564579,205.581421 
	C33.673431,205.906464 23.940807,204.145935 14.111288,203.756378 
	C11.233038,203.642288 8.482352,203.375565 7.214125,207.446762 
	C5.138812,207.659653 3.065766,209.077972 1.419556,206.369446 
	C1.000000,189.979111 1.000000,173.958206 1.000000,157.468658 
	C2.066468,155.748444 2.987986,155.601273 4.272647,156.932053 
	C5.399909,158.099792 6.635705,159.296707 8.654078,159.891785 
	C13.362693,160.011765 17.710800,160.045044 22.522572,160.082581 
	C25.403080,161.657684 27.952486,161.041962 30.755543,160.319000 
	C37.359642,160.094223 43.703075,160.092529 50.513687,160.094666 
	C51.755810,160.815018 52.568642,161.274338 53.793907,160.291351 
	C55.078697,160.103516 56.135841,160.103729 57.589409,160.101929 
	C61.067265,161.668991 64.255623,161.052536 67.726822,160.328995 
	C74.359444,160.093613 80.703033,160.091583 87.513824,160.093231 
	C88.755585,160.815384 89.568466,161.274353 90.793991,160.290070 
	C91.762489,160.103592 92.503601,160.105698 93.615250,160.104477 
	C97.067558,161.667099 100.255653,161.054001 103.726845,160.329010 
	C110.692726,160.093369 117.369583,160.091080 124.513779,160.092316 
	C125.755394,160.815567 126.568260,161.274368 127.794037,160.289520 
	C128.762451,160.103149 129.503555,160.105591 130.615234,160.104858 
	C134.067657,161.666382 137.255646,161.054382 140.726837,160.329193 
	C147.692261,160.093796 154.368668,160.091690 161.512299,160.093262 
	C162.441879,160.478958 162.887527,160.927795 163.788422,160.293533 
	C165.079224,160.099289 166.136154,160.101746 167.589432,160.102997 
	C171.067719,161.666138 174.255692,161.054657 177.726868,160.329056 
	C184.359467,160.093704 190.703049,160.091675 197.513840,160.093307 
	C198.756012,160.815842 199.569290,161.274368 200.794159,160.288086 
	C202.078323,160.100311 203.135559,160.101837 204.589264,160.101791 
	C208.067261,161.668640 211.255600,161.052551 214.726807,160.329010 
	C225.687775,160.053497 236.359741,160.011337 247.498047,159.959351 
	C250.525452,158.573013 249.804550,155.971039 249.829346,153.958221 
	C250.357071,111.137474 249.629532,68.312653 250.204956,25.489700 
	C250.297607,18.594212 249.943329,11.696818 250.222214,4.785834 
	C250.278702,3.386401 250.846481,2.695210 251.644363,1.354667 
	C265.687561,1.000000 279.375122,1.000000 293.531342,1.000000 
	C296.654358,2.959296 296.501709,5.833329 296.501282,8.660878 
	C296.498260,28.288853 296.499695,47.916824 296.500183,67.544800 
	C296.500824,92.828682 296.494598,118.112572 296.504974,143.396454 
	C296.506409,146.889191 296.562042,150.372025 297.110443,153.844269 
	C297.478363,156.173508 298.376221,158.063095 300.689209,159.679749 
z"/>
<path fill="#335D71" opacity="1.000000" stroke="none" 
	d="
M93.468658,541.000000 
	C88.814674,513.192017 88.293930,485.278076 91.877083,457.423553 
	C93.612061,443.936371 100.224350,432.294373 109.350883,422.186981 
	C110.577660,420.828369 111.802338,419.418457 113.241463,418.309235 
	C121.391685,412.027496 125.192497,404.036713 124.124222,393.569153 
	C123.502525,387.477356 126.939613,382.342926 129.939240,377.376282 
	C132.434891,373.244080 136.308701,373.596466 140.031281,375.648315 
	C144.338959,378.022736 147.400757,381.830658 150.562164,385.482513 
	C151.433121,386.488586 152.165085,387.618744 153.069046,388.591370 
	C153.973068,389.564056 155.020432,390.704041 156.465088,390.307526 
	C158.089783,389.861603 158.023758,388.201019 157.923523,386.943329 
	C157.244263,378.420654 160.965073,371.010590 163.868454,363.429535 
	C166.261200,357.181854 171.672440,356.014130 176.290710,361.010681 
	C185.323135,370.782837 193.701675,381.170227 202.911423,390.764923 
	C213.849594,402.160309 223.347061,415.176117 236.295685,424.346558 
	C244.207901,429.950134 253.774414,433.063354 263.738373,433.956787 
	C272.812408,434.770447 281.878693,433.880920 290.375702,431.088898 
	C298.701019,428.353302 306.439911,423.830872 312.874573,417.603088 
	C327.480103,403.467255 340.793091,388.157898 353.685608,372.465454 
	C356.958710,368.481506 360.446808,364.665344 363.973846,360.901093 
	C368.296326,356.287903 374.680420,357.162262 377.574432,362.788818 
	C381.266571,369.967133 383.532043,377.584259 384.070892,385.680847 
	C384.166901,387.122803 383.855652,388.954285 385.627838,389.550049 
	C387.139740,390.058258 387.982727,388.580292 388.884216,387.662689 
	C391.802216,384.692413 394.688202,381.689789 397.545227,378.660706 
	C404.180420,371.625946 410.670990,372.643097 413.714661,381.699158 
	C415.816345,387.952454 418.237549,394.231140 418.144012,401.071014 
	C418.062012,407.070435 420.359924,411.890900 425.212280,415.759491 
	C441.499756,428.744904 449.041779,446.699951 450.497223,466.625122 
	C451.900421,485.834656 451.963318,505.248871 450.102753,524.524414 
	C449.593750,529.797852 448.173737,534.983459 447.085876,540.604675 
	C436.645782,541.000000 426.291534,541.000000 415.468658,541.000000 
	C413.164917,539.706604 413.087494,538.098633 414.060516,536.222839 
	C420.015808,524.742249 420.973907,512.393250 420.539032,499.752960 
	C420.315796,493.264343 420.515106,486.761688 420.496094,480.265442 
	C420.413605,452.079254 403.718689,430.997498 376.135345,425.396759 
	C362.470978,422.622223 349.638153,426.397278 338.095245,433.951752 
	C322.674133,444.044434 315.566986,459.013184 314.645874,476.959869 
	C314.048798,488.593231 314.425110,500.274994 314.561523,511.933990 
	C314.656891,520.085632 317.239929,527.628784 320.426086,535.023682 
	C321.153870,536.712830 322.751587,538.575928 320.285339,540.713013 
	C316.307098,541.000000 312.614166,541.000000 308.460632,541.000000 
	C305.241882,539.411377 303.308777,537.134644 301.539856,534.453491 
	C295.975891,526.020203 287.732178,521.119019 278.283295,518.246399 
	C271.686188,516.240784 265.316742,518.452087 259.047119,520.300781 
	C250.058029,522.951294 243.350586,528.724792 237.960724,536.206238 
	C236.891968,537.689697 235.906372,539.247559 234.260406,540.739502 
	C229.975449,541.000000 225.950912,541.000000 221.463181,541.000000 
	C219.012207,539.526489 218.863068,538.003052 219.987808,535.655945 
	C224.435684,526.374268 226.709869,516.530151 226.482391,506.198303 
	C226.226288,494.568024 226.969177,482.940887 225.608566,471.302612 
	C223.122971,450.041290 207.889557,433.120605 187.287811,426.778778 
	C155.098862,416.870087 120.589043,443.322906 120.512138,477.996887 
	C120.489990,487.980988 120.607620,497.966461 120.472939,507.948792 
	C120.342079,517.647827 122.582695,526.748779 126.856995,535.384949 
	C127.754875,537.199097 128.626236,538.849182 126.287918,540.712158 
	C115.312439,541.000000 104.624878,541.000000 93.468658,541.000000 
z"/>
<path fill="#598195" opacity="1.000000" stroke="none" 
	d="
M126.468658,541.000000 
	C125.875336,537.863892 123.966682,535.396240 122.772888,532.684021 
	C119.638077,525.562012 117.927711,518.145935 118.081627,510.394012 
	C118.365471,496.098480 116.410774,481.643372 119.094299,467.532410 
	C125.662666,432.993500 162.559677,412.450867 194.807846,426.778473 
	C217.021072,436.647583 227.541382,454.073761 228.679535,477.633942 
	C229.225052,488.926331 228.819229,500.266724 228.773239,511.585083 
	C228.731674,521.817139 224.935745,531.060120 221.016785,540.631531 
	C189.645767,541.000000 158.291550,541.000000 126.468658,541.000000 
z"/>
<path fill="#598095" opacity="1.000000" stroke="none" 
	d="
M320.468658,541.000000 
	C318.665588,537.598572 317.432617,534.152832 315.973633,530.805725 
	C313.609039,525.381042 312.330872,519.700806 312.266357,513.837097 
	C312.123505,500.851349 311.887451,487.852997 312.277649,474.877502 
	C313.451965,435.831787 356.249786,410.407196 391.242188,427.795410 
	C412.261993,438.240448 422.337097,455.498413 422.861603,478.659729 
	C422.993500,484.484711 422.697968,490.323395 422.947357,496.140869 
	C423.603851,511.453613 422.694794,526.448303 415.062988,540.642822 
	C383.645782,541.000000 352.291534,541.000000 320.468658,541.000000 
z"/>
<path fill="#082A3C" opacity="1.000000" stroke="none" 
	d="
M1.000000,206.468658 
	C2.380066,205.976761 3.760133,205.953506 5.554203,205.923187 
	C10.517831,202.309662 15.652171,203.967361 20.628325,204.312302 
	C33.301235,205.190765 45.982536,204.725784 58.665600,204.764114 
	C79.395111,204.826736 100.125626,204.873764 120.853683,204.775299 
	C138.265030,204.692612 155.676041,204.848587 173.087494,204.778046 
	C193.984650,204.693390 214.893875,205.021225 235.784775,204.678116 
	C248.032913,204.476944 260.251129,205.712952 272.516113,204.699890 
	C282.796906,203.850739 293.132812,205.456680 303.442535,204.948151 
	C319.856110,204.138535 336.279846,204.813644 352.687378,204.801865 
	C373.760651,204.786758 394.849579,204.821442 415.924988,204.856247 
	C434.159271,204.886368 452.411102,204.814667 470.646149,204.877350 
	C482.210388,204.917114 493.773590,204.038223 505.310333,204.633850 
	C515.046692,205.136490 524.748718,204.902069 534.937195,204.922745 
	C535.836792,205.772873 535.955811,206.435165 535.392456,207.559402 
	C530.971130,209.105743 526.798584,208.998154 522.633179,208.998108 
	C355.551056,208.996399 188.468933,208.996674 21.386822,208.996735 
	C20.553909,208.996735 19.720999,208.996582 18.888086,208.997177 
	C4.431740,209.007309 2.664047,210.521133 4.288128,224.776733 
	C5.207991,232.850952 3.921233,240.724152 3.931114,248.694855 
	C4.040765,337.149933 4.000828,425.605255 3.997542,514.060486 
	C3.997443,516.725586 4.156828,519.410339 3.897225,522.052063 
	C3.089971,530.266724 6.284023,535.892090 14.142393,538.771179 
	C15.037375,539.099060 15.758162,539.902405 16.779861,540.742676 
	C12.339155,541.000000 7.675447,540.906616 3.018981,541.049438 
	C1.338484,541.100952 0.624372,540.820618 0.973747,539.017395 
	C1.129167,538.215210 1.000000,537.357849 1.000000,536.525574 
	C1.000000,426.662811 1.000000,316.800079 1.000000,206.468658 
z"/>
<path fill="#436E81" opacity="1.000000" stroke="none" 
	d="
M234.468658,541.000000 
	C233.948425,538.032654 235.119202,535.554382 236.844391,533.192871 
	C245.181183,521.781311 256.927582,516.674805 270.487976,515.140381 
	C284.532593,513.551086 302.113495,525.691406 307.879150,540.668457 
	C283.645782,541.000000 259.291534,541.000000 234.468658,541.000000 
z"/>
<path fill="#0B2A3B" opacity="1.000000" stroke="none" 
	d="
M535.981934,217.453430 
	C536.329163,215.242828 536.655090,213.482086 537.019897,211.337128 
	C537.996948,209.983185 538.956726,209.127289 540.654419,210.667572 
	C541.000000,212.388885 541.000000,213.777786 541.000000,215.583344 
	C539.270874,217.627747 539.950867,219.837418 539.952942,221.686081 
	C540.066406,321.577484 540.078308,421.468811 539.944275,521.360229 
	C539.942139,522.944458 539.606201,524.688660 540.707275,526.624146 
	C541.000000,528.388916 541.000000,529.777771 541.000000,531.583374 
	C539.822571,532.929504 539.426819,535.156372 536.728943,534.100098 
	C535.965759,526.579285 534.902344,519.331299 534.909119,511.967377 
	C534.997070,416.408600 535.124023,320.849640 534.903625,225.290802 
	C534.897888,222.799988 535.041809,220.284180 535.981934,217.453430 
z"/>
<path fill="#082C3D" opacity="1.000000" stroke="none" 
	d="
M300.940613,159.592667 
	C294.593628,159.633728 294.023773,159.053162 294.020691,151.981476 
	C293.999023,101.966759 294.005402,51.952034 294.001404,1.468656 
	C296.041656,1.000000 298.083344,1.000000 300.562500,1.000000 
	C298.390015,10.961618 299.420624,20.966766 300.080597,31.074867 
	C300.734314,41.086903 301.431763,51.202888 299.803711,61.232693 
	C298.706390,67.992699 298.952667,74.876526 299.536591,81.540268 
	C300.652496,94.275925 300.780945,106.852585 299.528259,119.599113 
	C298.843079,126.571091 298.241638,133.872437 300.225983,140.867249 
	C301.953064,146.955383 299.185028,153.141251 300.940613,159.592667 
z"/>
<path fill="#0C2937" opacity="1.000000" stroke="none" 
	d="
M541.000000,152.531342 
	C538.017029,154.665070 537.041199,158.540070 533.295044,159.835815 
	C536.088135,150.463989 535.496338,140.817703 535.289062,130.949814 
	C534.765869,106.045113 535.203308,81.109726 535.246216,56.193523 
	C535.277344,38.119724 535.943970,20.012470 535.001099,1.466306 
	C540.079163,-0.107437 541.177246,1.812191 541.150269,6.967469 
	C540.897095,55.331478 541.000000,103.697350 541.000000,152.531342 
z"/>
<path fill="#0E2330" opacity="1.000000" stroke="none" 
	d="
M251.600006,1.000000 
	C251.998825,49.716244 252.003311,98.432487 251.981949,147.148727 
	C251.980713,149.970215 251.937439,152.812027 251.597305,155.605865 
	C251.370056,157.472443 251.316040,159.794495 248.241730,159.980621 
	C247.977570,107.278793 247.990707,54.608051 248.001923,1.468654 
	C249.066666,1.000000 250.133347,1.000000 251.600006,1.000000 
z"/>
<path fill="#0F2633" opacity="1.000000" stroke="none" 
	d="
M541.000000,526.531372 
	C538.970520,525.060974 539.017273,522.522156 539.017151,520.015930 
	C539.011169,421.087738 539.009827,322.159546 539.020386,223.231354 
	C539.020630,220.913193 538.858521,218.526306 540.754028,216.280563 
	C541.000000,319.354218 541.000000,422.708466 541.000000,526.531372 
z"/>
<path fill="#244E62" opacity="1.000000" stroke="none" 
	d="
M60.571537,1.000000 
	C62.418293,4.807076 66.100174,6.569941 68.629875,9.373549 
	C74.043297,15.373112 74.133430,19.117962 68.551720,24.798338 
	C67.038704,26.338104 65.530205,27.914488 63.834370,29.236401 
	C58.796791,33.163227 54.903267,31.864492 47.566784,23.973843 
	C42.742516,18.785170 42.535061,15.715346 46.717056,11.034723 
	C49.472481,7.950756 52.781891,5.347527 54.920151,1.329814 
	C56.714359,1.000000 58.428715,1.000000 60.571537,1.000000 
z"/>
<path fill="#0A2837" opacity="1.000000" stroke="none" 
	d="
M3.500000,1.000000 
	C3.997235,46.068317 4.177489,91.138107 3.815551,136.203537 
	C3.753623,143.914337 6.906731,150.317062 8.934299,157.631683 
	C6.103563,160.529236 5.134194,157.258026 3.572972,156.133942 
	C2.168402,155.122635 2.144446,153.240768 1.287448,151.357483 
	C1.000000,102.166672 0.987414,53.333321 1.072777,4.500145 
	C1.074904,3.282848 -0.533119,0.528708 3.500000,1.000000 
z"/>
<path fill="#234D61" opacity="1.000000" stroke="none" 
	d="
M404.531372,1.000000 
	C404.169647,3.661811 402.117828,5.433345 400.271942,7.316997 
	C395.604309,12.080001 391.266541,12.173304 386.404510,7.657654 
	C384.463074,5.854523 382.445831,4.090508 381.147400,1.304284 
	C388.687592,1.000000 396.375153,1.000000 404.531372,1.000000 
z"/>
<path fill="#0F2633" opacity="1.000000" stroke="none" 
	d="
M536.660034,533.002258 
	C538.116272,532.732666 539.224731,532.448303 540.666626,532.081970 
	C541.000000,532.324158 541.000000,532.648315 541.000000,532.972473 
	C541.000000,541.000000 541.000000,541.000000 532.491089,541.000000 
	C532.288574,539.893921 532.577148,538.787781 532.951172,537.349548 
	C533.316162,536.293274 532.934814,535.365540 533.748901,534.435547 
	C534.107300,533.551636 533.991882,532.619751 535.351318,532.701904 
	C535.898315,532.777222 536.105225,532.882324 536.660034,533.002258 
z"/>
<path fill="#0F2633" opacity="1.000000" stroke="none" 
	d="
M541.000000,210.562500 
	C539.947876,210.989517 538.895752,210.979050 537.451172,210.960754 
	C536.534241,210.095703 536.009705,209.238510 535.262939,208.173325 
	C535.032715,207.528198 535.024597,207.091034 535.009949,206.325714 
	C533.494873,203.307007 534.885132,202.974808 537.574951,203.678986 
	C538.748169,204.001953 539.498779,204.002075 540.624695,204.001099 
	C541.000000,206.041672 541.000000,208.083328 541.000000,210.562500 
z"/>
<path fill="#0E2330" opacity="1.000000" stroke="none" 
	d="
M1.000000,151.428467 
	C3.706743,152.968018 4.990117,156.489380 8.662563,157.877090 
	C8.980711,158.451218 8.991077,158.887665 9.008015,159.651306 
	C5.788591,161.192719 3.873045,158.713943 1.283484,157.167877 
	C1.000000,155.285645 1.000000,153.571289 1.000000,151.428467 
z"/>
<path fill="#082A3C" opacity="1.000000" stroke="none" 
	d="
M537.049622,532.640625 
	C537.007812,533.017090 537.002991,533.507202 537.000244,533.752197 
	C536.455627,534.523804 535.934387,535.070862 535.204102,535.809509 
	C534.514160,536.267151 534.025208,536.525146 533.286377,536.900269 
	C532.302124,533.946594 529.689514,532.338074 527.236938,530.283508 
	C534.443970,529.283752 534.435730,529.284119 534.078064,521.781311 
	C534.006714,520.283936 534.005188,518.782410 534.005188,517.282776 
	C534.001892,420.455231 533.997925,323.627686 534.020691,226.800156 
	C534.021423,223.673676 533.530640,220.417908 535.775879,217.304718 
	C537.189758,220.977066 535.951294,224.950607 535.953979,228.924454 
	C536.018555,324.238678 536.032349,419.552979 535.934937,514.867126 
	C535.928955,520.722900 537.992981,526.386169 537.049622,532.640625 
z"/>
<path fill="#244E62" opacity="1.000000" stroke="none" 
	d="
M487.169678,269.036377 
	C491.364685,275.640198 486.832977,279.992798 480.659943,285.388000 
	C476.658783,288.885040 473.213654,288.285736 468.346924,284.008148 
	C466.979065,282.805878 465.522156,281.666046 464.345154,280.292664 
	C460.500519,275.806549 460.671814,271.347595 464.727142,267.078644 
	C465.754395,265.997223 466.804901,264.935059 467.889008,263.910919 
	C473.138458,258.951660 476.875824,258.886993 482.105377,263.746033 
	C483.801788,265.322235 485.342865,267.065674 487.169678,269.036377 
z"/>
<path fill="#234D61" opacity="1.000000" stroke="none" 
	d="
M201.472900,239.375610 
	C205.433578,236.882019 208.718796,237.661743 211.749039,240.436356 
	C212.117065,240.773346 212.486282,241.109055 212.851883,241.448669 
	C222.015076,249.960449 221.648087,255.950027 211.430298,263.516296 
	C208.125000,265.963867 204.717697,266.224396 201.358170,263.525909 
	C201.228531,263.421783 201.105042,263.310028 200.976135,263.204987 
	C189.828522,254.120621 189.865768,249.964279 201.472900,239.375610 
z"/>
<path fill="#234D61" opacity="1.000000" stroke="none" 
	d="
M424.478638,232.491226 
	C420.517609,227.106049 420.368225,223.670364 423.706909,220.230774 
	C427.002014,216.836090 431.424591,216.328140 434.948151,218.939728 
	C439.613678,222.397705 440.702240,226.195786 438.110199,229.972214 
	C434.132507,235.767502 430.332367,236.557693 424.478638,232.491226 
z"/>
<path fill="#244E62" opacity="1.000000" stroke="none" 
	d="
M164.404861,61.313568 
	C170.204559,57.190037 173.606430,57.418816 178.264130,62.136234 
	C180.248657,64.146225 182.039185,66.346245 183.963409,68.417618 
	C188.965134,73.801819 189.019089,76.418106 184.187271,82.116348 
	C173.537704,94.675591 170.227402,94.843056 158.962540,83.392532 
	C152.645126,76.971008 152.623947,73.556076 158.903229,66.909439 
	C160.616684,65.095757 162.392853,63.341351 164.404861,61.313568 
z"/>
<path fill="#0E2330" opacity="1.000000" stroke="none" 
	d="
M214.560822,160.075485 
	C211.963242,162.511566 208.796417,162.551926 205.258606,160.325974 
	C208.025757,160.085251 211.065781,160.070297 214.560822,160.075485 
z"/>
<path fill="#0E2330" opacity="1.000000" stroke="none" 
	d="
M177.560852,160.075577 
	C174.963547,162.511765 171.796646,162.550949 168.258667,160.327377 
	C171.025803,160.086349 174.065811,160.070877 177.560852,160.075577 
z"/>
<path fill="#0E2330" opacity="1.000000" stroke="none" 
	d="
M140.560852,160.075684 
	C137.963486,162.511703 134.796600,162.551102 131.258667,160.327271 
	C134.025803,160.086288 137.065826,160.070892 140.560852,160.075684 
z"/>
<path fill="#0E2330" opacity="1.000000" stroke="none" 
	d="
M103.560852,160.075500 
	C100.963440,162.511826 97.796547,162.551224 94.258636,160.326813 
	C97.025803,160.085876 100.065819,160.070618 103.560852,160.075500 
z"/>
<path fill="#0E2330" opacity="1.000000" stroke="none" 
	d="
M67.560837,160.075485 
	C64.963211,162.511414 61.796410,162.552109 58.258663,160.325714 
	C61.025833,160.085052 64.065834,160.070190 67.560837,160.075485 
z"/>
<path fill="#0E2330" opacity="1.000000" stroke="none" 
	d="
M30.570812,160.075836 
	C28.625174,162.198715 26.125593,162.427734 23.244560,160.309006 
	C25.365963,160.076492 27.745687,160.066116 30.570812,160.075836 
z"/>
<path fill="#0E2330" opacity="1.000000" stroke="none" 
	d="
M200.641159,160.085281 
	C200.205215,160.966492 199.332489,161.340073 198.145416,160.253906 
	C198.741104,160.088577 199.501175,160.080170 200.641159,160.085281 
z"/>
<path fill="#0E2330" opacity="1.000000" stroke="none" 
	d="
M127.641418,160.086731 
	C127.204597,160.967499 126.331421,161.339462 125.145462,160.252930 
	C125.741241,160.088165 126.501373,160.080460 127.641418,160.086731 
z"/>
<path fill="#0E2330" opacity="1.000000" stroke="none" 
	d="
M90.641449,160.087540 
	C90.204605,160.968124 89.331329,161.339462 88.145393,160.253845 
	C88.741180,160.089111 89.501350,160.081345 90.641449,160.087540 
z"/>
<path fill="#0E2330" opacity="1.000000" stroke="none" 
	d="
M53.641579,160.089249 
	C53.204460,160.969101 52.330971,161.339676 51.145264,160.255310 
	C51.741116,160.090729 52.501362,160.082962 53.641579,160.089249 
z"/>
<path fill="#0E2330" opacity="1.000000" stroke="none" 
	d="
M163.681854,160.088409 
	C163.485046,160.626724 162.908188,160.850296 162.107208,160.212433 
	C162.433487,160.091278 162.887451,160.085648 163.681854,160.088409 
z"/>
<path fill="#0E2330" opacity="1.000000" stroke="none" 
	d="
M537.811523,203.742004 
	C537.136047,204.517090 536.274536,205.032349 535.208252,205.772583 
	C358.972626,205.982056 182.941849,205.966553 6.439631,205.933563 
	C7.647374,201.802017 10.830702,200.824234 14.914932,201.503616 
	C28.598644,203.779800 42.353291,203.285538 56.165955,203.495682 
	C73.268654,203.755859 90.394043,202.240753 107.493248,203.823532 
	C113.608650,204.389618 119.796333,204.249573 125.939606,203.411484 
	C130.741058,202.756439 135.571915,202.867859 140.390823,203.421875 
	C142.374039,203.649872 144.392807,204.097595 146.351257,203.929901 
	C164.773438,202.352493 183.249985,204.902390 201.666687,203.130356 
	C208.007065,202.520309 214.363434,204.345840 220.586884,203.830200 
	C239.032532,202.301910 257.497498,205.089325 275.910797,203.116623 
	C282.255676,202.436874 288.575775,204.446777 294.834229,203.892044 
	C313.436615,202.243134 332.075073,205.197540 350.655670,203.096268 
	C357.156433,202.361099 363.642029,204.606903 370.077240,203.913315 
	C388.010010,201.980560 405.984802,205.267365 423.903076,203.106125 
	C431.054749,202.243530 438.214600,204.702850 445.320709,203.917130 
	C462.921051,201.971054 480.535278,205.076309 498.161194,203.238922 
	C505.690216,202.454071 513.428528,203.736237 521.074707,203.990799 
	C524.907288,204.118393 528.731567,204.071960 532.315063,202.291626 
	C534.321472,201.294785 536.202515,201.538544 537.811523,203.742004 
z"/>
<path fill="#052E42" opacity="1.000000" stroke="none" 
	d="
M162.151291,524.800903 
	C158.088181,520.214661 156.492813,514.948669 156.201035,509.397339 
	C155.860809,502.923950 156.146271,496.419800 156.035507,489.931122 
	C155.989227,487.220581 156.997910,485.942841 159.804688,486.006744 
	C174.862473,486.349701 181.580276,469.684845 173.955551,459.389313 
	C171.548294,456.138824 173.713623,455.425812 176.218460,454.785889 
	C191.376938,450.913513 207.342773,462.606018 207.902893,478.256165 
	C208.247940,487.897644 208.146378,497.559967 208.052643,507.211029 
	C207.934570,519.368347 201.704819,528.738831 191.407700,532.636719 
	C181.256104,536.479614 170.620773,533.704834 162.151291,524.800903 
z"/>
<path fill="#052F43" opacity="1.000000" stroke="none" 
	d="
M332.844849,502.968079 
	C332.845917,500.976440 332.958466,499.468811 332.828705,497.982300 
	C332.260254,491.468628 332.430267,486.616547 340.892883,484.120636 
	C350.348206,481.331909 353.271149,470.744476 348.606934,461.251160 
	C346.739288,457.449799 347.893280,456.314056 351.224823,455.229889 
	C365.905151,450.452515 382.632111,460.546326 384.390503,475.983917 
	C385.745819,487.882782 385.617584,499.969910 384.392151,511.868286 
	C382.970581,525.670959 371.064941,534.875610 357.106049,534.116577 
	C343.916290,533.399353 333.636566,522.934448 332.917877,509.452179 
	C332.811676,507.459747 332.865204,505.458801 332.844849,502.968079 
z"/>
<path fill="#568193" opacity="1.000000" stroke="none" 
	d="
M265.741028,521.562561 
	C271.221039,520.498779 276.035309,521.195496 280.633270,523.518921 
	C283.185120,524.808411 285.258301,526.515442 284.333221,529.686829 
	C283.322296,533.152405 280.405914,534.462585 277.287628,533.478455 
	C272.627502,532.007751 268.153198,532.595215 263.566864,533.304382 
	C260.721283,533.744385 258.057892,533.388062 257.350464,530.011292 
	C256.667938,526.753174 257.791962,524.067993 260.998169,522.697815 
	C262.344147,522.122559 263.872406,521.973877 265.741028,521.562561 
z"/>
<path fill="#0B2A3B" opacity="1.000000" stroke="none" 
	d="
M535.230225,535.836731 
	C535.516785,535.453491 536.030396,534.897766 536.770752,534.169678 
	C536.484070,534.552917 535.970642,535.108582 535.230225,535.836731 
z"/>
</svg>